<svg xmlns="http://www.w3.org/2000/svg" viewBox="0 0 1536 1024" role="img" width="1536" height="1024">
  <title>2012 Global Health Developments and Disease Surveillance – Retro Pixel Art Banner</title>
  <defs>
    <radialGradient id="crt" cx="50%" cy="50%" r="70%">
      <stop offset="0%" stop-color="#001a00" />
      <stop offset="100%" stop-color="#000800" />
    </radialGradient>
    <filter id="glow">
      <feGaussianBlur stdDeviation="3" result="blur" />
      <feMerge><feMergeNode in="blur" /><feMergeNode in="SourceGraphic" /></feMerge>
    </filter>
  </defs>

  
  <rect width="1536" height="1024" fill="url(#crt)" />

  
  <rect width="1536" height="1024" fill="none" stroke="#00ff00" stroke-width="0" opacity="0.04" />
  
  <rect x="0" y="0" width="1536" height="2" fill="#00ff00" opacity="0.03" />
  <rect x="0" y="4" width="1536" height="2" fill="#00ff00" opacity="0.03" />
  <rect x="0" y="8" width="1536" height="2" fill="#00ff00" opacity="0.03" />
  <rect x="0" y="12" width="1536" height="2" fill="#00ff00" opacity="0.03" />
  <rect x="0" y="16" width="1536" height="2" fill="#00ff00" opacity="0.03" />
  <rect x="0" y="20" width="1536" height="2" fill="#00ff00" opacity="0.03" />
  <rect x="0" y="24" width="1536" height="2" fill="#00ff00" opacity="0.03" />
  <rect x="0" y="28" width="1536" height="2" fill="#00ff00" opacity="0.03" />
  <rect x="0" y="32" width="1536" height="2" fill="#00ff00" opacity="0.03" />
  <rect x="0" y="36" width="1536" height="2" fill="#00ff00" opacity="0.03" />
  <rect x="0" y="40" width="1536" height="2" fill="#00ff00" opacity="0.03" />
  <rect x="0" y="44" width="1536" height="2" fill="#00ff00" opacity="0.03" />
  <rect x="0" y="48" width="1536" height="2" fill="#00ff00" opacity="0.03" />
  <rect x="0" y="52" width="1536" height="2" fill="#00ff00" opacity="0.03" />
  <rect x="0" y="56" width="1536" height="2" fill="#00ff00" opacity="0.03" />
  <rect x="0" y="60" width="1536" height="2" fill="#00ff00" opacity="0.03" />
  <rect x="0" y="64" width="1536" height="2" fill="#00ff00" opacity="0.03" />
  <rect x="0" y="68" width="1536" height="2" fill="#00ff00" opacity="0.03" />
  <rect x="0" y="72" width="1536" height="2" fill="#00ff00" opacity="0.03" />
  <rect x="0" y="76" width="1536" height="2" fill="#00ff00" opacity="0.03" />
  <rect x="0" y="80" width="1536" height="2" fill="#00ff00" opacity="0.03" />
  <rect x="0" y="84" width="1536" height="2" fill="#00ff00" opacity="0.03" />
  <rect x="0" y="88" width="1536" height="2" fill="#00ff00" opacity="0.03" />
  <rect x="0" y="92" width="1536" height="2" fill="#00ff00" opacity="0.03" />
  <rect x="0" y="96" width="1536" height="2" fill="#00ff00" opacity="0.03" />
  <rect x="0" y="100" width="1536" height="2" fill="#00ff00" opacity="0.03" />

  
  <rect x="0" y="0" width="1536" height="48" fill="#0a1a0a" />
  <rect x="0" y="976" width="1536" height="48" fill="#0a1a0a" />

  
  <rect x="0" y="0" width="48" height="48" fill="#00ff41" />
  <rect x="48" y="0" width="48" height="48" fill="#00cc33" />
  <rect x="96" y="0" width="48" height="48" fill="#009922" />
  <rect x="144" y="0" width="48" height="48" fill="#006611" />
  <rect x="192" y="0" width="48" height="48" fill="#0a1a0a" />
  
  <rect x="1488" y="0" width="48" height="48" fill="#00ff41" />
  <rect x="1440" y="0" width="48" height="48" fill="#00cc33" />
  <rect x="1392" y="0" width="48" height="48" fill="#009922" />
  <rect x="1344" y="0" width="48" height="48" fill="#006611" />
  <rect x="1296" y="0" width="48" height="48" fill="#0a1a0a" />

  
  <rect x="60" y="70" width="280" height="80" fill="#00ff41" filter="url(#glow)" />
  <rect x="68" y="78" width="264" height="64" fill="#003300" />
  <text x="200" y="124" font-family="monospace" font-size="40" font-weight="bold" fill="#00ff41" text-anchor="middle" filter="url(#glow)">2012</text>

  
  
  <g filter="url(#glow)" transform="translate(260, 420)">
    
    <rect x="-80" y="-40" width="160" height="80" fill="#ff4444" />
    <rect x="-60" y="-60" width="120" height="20" fill="#ff4444" />
    <rect x="-60" y="40" width="120" height="20" fill="#ff4444" />
    <rect x="-100" y="-20" width="20" height="40" fill="#ff4444" />
    <rect x="80" y="-20" width="20" height="40" fill="#ff4444" />
    
    <rect x="-40" y="-20" width="80" height="40" fill="#ff6666" />
    <rect x="-20" y="-40" width="40" height="80" fill="#ff6666" />
    <rect x="-20" y="-20" width="40" height="40" fill="#ffaaaa" />
    
    
    <rect x="-20" y="-100" width="8" height="40" fill="#ff6600" />
    <rect x="-24" y="-108" width="16" height="8" fill="#ff9900" />
    <rect x="12" y="-100" width="8" height="40" fill="#ff6600" />
    <rect x="8" y="-108" width="16" height="8" fill="#ff9900" />
    
    <rect x="-20" y="60" width="8" height="40" fill="#ff6600" />
    <rect x="-24" y="100" width="16" height="8" fill="#ff9900" />
    <rect x="12" y="60" width="8" height="40" fill="#ff6600" />
    <rect x="8" y="100" width="16" height="8" fill="#ff9900" />
    
    <rect x="-140" y="-20" width="40" height="8" fill="#ff6600" />
    <rect x="-148" y="-24" width="8" height="16" fill="#ff9900" />
    <rect x="-140" y="12" width="40" height="8" fill="#ff6600" />
    <rect x="-148" y="8" width="8" height="16" fill="#ff9900" />
    
    <rect x="100" y="-20" width="40" height="8" fill="#ff6600" />
    <rect x="140" y="-24" width="8" height="16" fill="#ff9900" />
    <rect x="100" y="12" width="40" height="8" fill="#ff6600" />
    <rect x="140" y="8" width="8" height="16" fill="#ff9900" />
    
    <rect x="-90" y="-90" width="8" height="30" fill="#ff6600" transform="rotate(-45,-86,-75)" />
    <rect x="82" y="-90" width="8" height="30" fill="#ff6600" transform="rotate(45,86,-75)" />
    <rect x="-90" y="60" width="8" height="30" fill="#ff6600" transform="rotate(45,-86,75)" />
    <rect x="82" y="60" width="8" height="30" fill="#ff6600" transform="rotate(-45,86,75)" />
    
    <text x="0" y="170" font-family="monospace" font-size="20" fill="#ff6666" text-anchor="middle">MERS-CoV</text>
  </g>

  
  <g transform="translate(768, 480)">
    
    <rect x="-180" y="-60" width="360" height="120" fill="#0055aa" />
    <rect x="-160" y="-100" width="320" height="40" fill="#0055aa" />
    <rect x="-160" y="60" width="320" height="40" fill="#0055aa" />
    <rect x="-120" y="-120" width="240" height="20" fill="#0055aa" />
    <rect x="-120" y="100" width="240" height="20" fill="#0055aa" />
    <rect x="-60" y="-140" width="120" height="20" fill="#0055aa" />
    <rect x="-60" y="120" width="120" height="20" fill="#0055aa" />
    
    
    <rect x="20" y="-60" width="80" height="120" fill="#00aa44" />
    <rect x="40" y="-80" width="60" height="20" fill="#00aa44" />
    <rect x="20" y="-100" width="40" height="20" fill="#00aa44" />
    <rect x="60" y="60" width="40" height="40" fill="#00aa44" />
    
    <rect x="0" y="-120" width="60" height="40" fill="#00aa44" />
    
    <rect x="80" y="-100" width="80" height="60" fill="#00aa44" />
    <rect x="100" y="-40" width="60" height="40" fill="#00aa44" />
    
    <rect x="-140" y="-60" width="60" height="100" fill="#00aa44" />
    <rect x="-120" y="-80" width="40" height="20" fill="#00aa44" />
    
    <rect x="-180" y="-4" width="360" height="8" fill="#0077cc" opacity="0.5" />
    <rect x="-160" y="-44" width="320" height="8" fill="#0077cc" opacity="0.3" />
    <rect x="-160" y="36" width="320" height="8" fill="#0077cc" opacity="0.3" />
    
    <rect x="-4" y="-140" width="8" height="280" fill="#0077cc" opacity="0.3" />
    
    <text x="0" y="180" font-family="monospace" font-size="18" fill="#00ccff" text-anchor="middle">GLOBAL HEALTH SURVEILLANCE</text>
  </g>

  
  <g transform="translate(1260, 440)" filter="url(#glow)">
    
    <rect x="-20" y="-120" width="40" height="180" fill="#aaddff" />
    <rect x="-24" y="-140" width="48" height="20" fill="#88bbdd" />
    
    <rect x="-16" y="-80" width="32" height="120" fill="#00ddff" opacity="0.7" />
    
    <rect x="-28" y="-160" width="56" height="20" fill="#dddddd" />
    <rect x="-8" y="-200" width="16" height="40" fill="#dddddd" />
    
    <rect x="-4" y="60" width="8" height="60" fill="#cccccc" />
    <rect x="-2" y="120" width="4" height="20" fill="#aaaaaa" />
    
    <rect x="20" y="-60" width="12" height="4" fill="#003366" />
    <rect x="20" y="-20" width="12" height="4" fill="#003366" />
    <rect x="20" y="20" width="12" height="4" fill="#003366" />
    
    <text x="0" y="170" font-family="monospace" font-size="20" fill="#00ddff" text-anchor="middle">VACCINE</text>
    <text x="0" y="195" font-family="monospace" font-size="14" fill="#00aa99" text-anchor="middle">POLIO -99%</text>
  </g>

  
  <g opacity="0.4">
    
    <rect x="20" y="150" width="8" height="8" fill="#00ff41" />
    <rect x="40" y="158" width="8" height="8" fill="#00ff41" />
    <rect x="60" y="150" width="8" height="8" fill="#ff4444" />
    <rect x="20" y="170" width="8" height="8" fill="#ff4444" />
    <rect x="40" y="178" width="8" height="8" fill="#00ff41" />
    <rect x="60" y="170" width="8" height="8" fill="#00ff41" />
    <rect x="20" y="190" width="8" height="8" fill="#00ff41" />
    <rect x="40" y="198" width="8" height="8" fill="#ff4444" />
    <rect x="60" y="190" width="8" height="8" fill="#ff4444" />
    <rect x="20" y="210" width="8" height="8" fill="#ff4444" />
    <rect x="40" y="218" width="8" height="8" fill="#00ff41" />
    <rect x="60" y="210" width="8" height="8" fill="#00ff41" />
    
    <rect x="28" y="153" width="12" height="4" fill="#ffff00" />
    <rect x="48" y="153" width="12" height="4" fill="#ffff00" />
    <rect x="28" y="193" width="12" height="4" fill="#ffff00" />
    <rect x="48" y="193" width="12" height="4" fill="#ffff00" />
  </g>

  
  <g transform="translate(1380, 200)">
    <text x="60" y="-10" font-family="monospace" font-size="16" fill="#00ff41" text-anchor="middle">POLIO CASES</text>
    
    <rect x="0" y="-80" width="24" height="80" fill="#ff4444" />
    <rect x="30" y="-60" width="24" height="60" fill="#ff6600" />
    <rect x="60" y="-40" width="24" height="40" fill="#ffaa00" />
    <rect x="90" y="-20" width="24" height="20" fill="#00ff41" />
    
    <rect x="-4" y="-85" width="4" height="90" fill="#00ff41" />
    <rect x="-4" y="4" width="128" height="4" fill="#00ff41" />
    
    <text x="12" y="20" font-family="monospace" font-size="12" fill="#aaaaaa" text-anchor="middle">09</text>
    <text x="42" y="20" font-family="monospace" font-size="12" fill="#aaaaaa" text-anchor="middle">10</text>
    <text x="72" y="20" font-family="monospace" font-size="12" fill="#aaaaaa" text-anchor="middle">11</text>
    <text x="102" y="20" font-family="monospace" font-size="12" fill="#00ff41" text-anchor="middle">12</text>
  </g>

  
  <g transform="translate(500, 700)" opacity="0.8">
    
    <rect x="-20" y="-20" width="80" height="40" fill="#cc8800" />
    <rect x="-20" y="-40" width="24" height="20" fill="#cc8800" />
    <rect x="36" y="-48" width="24" height="28" fill="#cc8800" />
    <rect x="36" y="-64" width="16" height="16" fill="#cc8800" />
    
    <rect x="0" y="-48" width="36" height="28" fill="#cc8800" />
    
    <rect x="-16" y="20" width="12" height="36" fill="#aa6600" />
    <rect x="4" y="20" width="12" height="36" fill="#aa6600" />
    <rect x="36" y="20" width="12" height="36" fill="#aa6600" />
    <rect x="52" y="20" width="12" height="36" fill="#aa6600" />
    
    <rect x="44" y="-56" width="8" height="8" fill="#000000" />
    <text x="30" y="80" font-family="monospace" font-size="16" fill="#cc8800" text-anchor="middle">ZOONOTIC</text>
  </g>

  
  <g transform="translate(768, 480)" opacity="0.2">
    <rect x="-200" y="-200" width="400" height="8" fill="#00ff41" />
    <rect x="-200" y="-200" width="8" height="400" fill="#00ff41" />
    <rect x="192" y="-200" width="8" height="400" fill="#00ff41" />
    <rect x="-200" y="192" width="400" height="8" fill="#00ff41" />
  </g>

  
  <rect x="200" y="830" width="1136" height="150" fill="#001500" opacity="0.85" />
  <rect x="200" y="830" width="1136" height="6" fill="#00ff41" />
  <rect x="200" y="974" width="1136" height="6" fill="#00ff41" />
  <rect x="200" y="830" width="6" height="150" fill="#00ff41" />
  <rect x="1330" y="830" width="6" height="150" fill="#00ff41" />

  <text x="768" y="894" font-family="monospace" font-size="52" font-weight="bold" fill="#00ff41" text-anchor="middle" filter="url(#glow)">2012 GLOBAL HEALTH DEVELOPMENTS</text>
  <text x="768" y="954" font-family="monospace" font-size="38" font-weight="bold" fill="#ffaa00" text-anchor="middle" filter="url(#glow)">AND DISEASE SURVEILLANCE</text>

  
  <rect x="200" y="830" width="20" height="20" fill="#00ff41" />
  <rect x="1316" y="830" width="20" height="20" fill="#00ff41" />
  <rect x="200" y="960" width="20" height="20" fill="#00ff41" />
  <rect x="1316" y="960" width="20" height="20" fill="#00ff41" />

  
  <rect x="60" y="900" width="128" height="32" fill="#003300" />
  <rect x="60" y="900" width="128" height="32" fill="none" stroke="#00ff41" stroke-width="4" />
  <text x="124" y="922" font-family="monospace" font-size="14" fill="#00ff41" text-anchor="middle">EPIDEMIOLOGY</text>

  <rect x="60" y="940" width="128" height="32" fill="#003300" />
  <rect x="60" y="940" width="128" height="32" fill="none" stroke="#ffaa00" stroke-width="4" />
  <text x="124" y="962" font-family="monospace" font-size="14" fill="#ffaa00" text-anchor="middle">VACCINATION</text>

  <rect x="1348" y="900" width="128" height="32" fill="#003300" />
  <rect x="1348" y="900" width="128" height="32" fill="none" stroke="#ff4444" stroke-width="4" />
  <text x="1412" y="922" font-family="monospace" font-size="14" fill="#ff4444" text-anchor="middle">MERS-CoV</text>

  <rect x="1348" y="940" width="128" height="32" fill="#003300" />
  <rect x="1348" y="940" width="128" height="32" fill="none" stroke="#00ccff" stroke-width="4" />
  <text x="1412" y="962" font-family="monospace" font-size="14" fill="#00ccff" text-anchor="middle">PUBLIC-HLTH</text>

  
  <rect x="820" y="360" width="12" height="12" fill="#ff0000" filter="url(#glow)" />
  <rect x="760" y="340" width="10" height="10" fill="#ff6600" filter="url(#glow)" />
  <rect x="690" y="400" width="10" height="10" fill="#ffff00" filter="url(#glow)" />
  <rect x="870" y="420" width="8" height="8" fill="#ff0000" filter="url(#glow)" />
  <rect x="640" y="460" width="10" height="10" fill="#ffaa00" filter="url(#glow)" />

  
  <rect x="0" y="976" width="48" height="48" fill="#00ff41" />
  <rect x="48" y="976" width="48" height="48" fill="#00cc33" />
  <rect x="96" y="976" width="48" height="48" fill="#009922" />
  <rect x="144" y="976" width="48" height="48" fill="#006611" />
  <rect x="192" y="976" width="48" height="48" fill="#0a1a0a" />
  <rect x="1488" y="976" width="48" height="48" fill="#00ff41" />
  <rect x="1440" y="976" width="48" height="48" fill="#00cc33" />
  <rect x="1392" y="976" width="48" height="48" fill="#009922" />
  <rect x="1344" y="976" width="48" height="48" fill="#006611" />
  <rect x="1296" y="976" width="48" height="48" fill="#0a1a0a" />

</svg>