<svg xmlns="http://www.w3.org/2000/svg" viewBox="0 0 1536 1024" role="img" width="1536" height="1024">
  <title>Aung San Suu Kyi Enters Myanmar's Parliament (2012) — Retro Pixel Art Banner</title>
  <defs>
    <radialGradient id="crt" cx="50%" cy="50%" r="70%">
      <stop offset="0%" stop-color="#1a0a2e" />
      <stop offset="100%" stop-color="#050008" />
    </radialGradient>
    <filter id="glow">
      <feGaussianBlur stdDeviation="4" result="blur" />
      <feMerge><feMergeNode in="blur" /><feMergeNode in="SourceGraphic" /></feMerge>
    </filter>
    <pattern id="scanlines" x="0" y="0" width="1" height="4" patternUnits="userSpaceOnUse">
      <rect x="0" y="0" width="1536" height="2" fill="black" opacity="0.18" />
    </pattern>
  </defs>

  
  <rect width="1536" height="1024" fill="url(#crt)" />

  
  <rect x="60" y="40" width="4" height="4" fill="#ffffff" opacity="0.7" />
  <rect x="200" y="80" width="4" height="4" fill="#ffffff" opacity="0.5" />
  <rect x="400" y="30" width="4" height="4" fill="#ffffff" opacity="0.6" />
  <rect x="600" y="60" width="4" height="4" fill="#ffffff" opacity="0.4" />
  <rect x="900" y="25" width="4" height="4" fill="#ffffff" opacity="0.7" />
  <rect x="1100" y="55" width="4" height="4" fill="#ffffff" opacity="0.5" />
  <rect x="1300" y="35" width="4" height="4" fill="#ffffff" opacity="0.6" />
  <rect x="1480" y="70" width="4" height="4" fill="#ffffff" opacity="0.4" />
  <rect x="80" y="200" width="4" height="4" fill="#ffff00" opacity="0.5" />
  <rect x="1450" y="300" width="4" height="4" fill="#ffff00" opacity="0.5" />

  
  
  <rect x="500" y="520" width="536" height="280" fill="#2a1a5e" />
  
  <rect x="496" y="516" width="8" height="288" fill="#4a3a8e" />
  <rect x="1032" y="516" width="8" height="288" fill="#4a3a8e" />
  <rect x="496" y="796" width="548" height="8" fill="#4a3a8e" />

  
  <rect x="540" y="540" width="16" height="256" fill="#3a2a7e" />
  <rect x="580" y="540" width="16" height="256" fill="#3a2a7e" />
  <rect x="620" y="540" width="16" height="256" fill="#3a2a7e" />
  <rect x="680" y="540" width="16" height="256" fill="#3a2a7e" />
  <rect x="720" y="540" width="16" height="256" fill="#3a2a7e" />
  <rect x="760" y="540" width="16" height="256" fill="#3a2a7e" />
  <rect x="820" y="540" width="16" height="256" fill="#3a2a7e" />
  <rect x="860" y="540" width="16" height="256" fill="#3a2a7e" />
  <rect x="900" y="540" width="16" height="256" fill="#3a2a7e" />
  <rect x="940" y="540" width="16" height="256" fill="#3a2a7e" />
  <rect x="980" y="540" width="16" height="256" fill="#3a2a7e" />

  
  <rect x="460" y="490" width="616" height="32" fill="#4a3a8e" />
  <rect x="480" y="458" width="576" height="36" fill="#5a4a9e" />
  <rect x="510" y="426" width="516" height="36" fill="#6a5aae" />
  
  <rect x="700" y="330" width="136" height="100" fill="#7a6abe" />
  <rect x="716" y="298" width="104" height="36" fill="#8a7ace" />
  <rect x="732" y="274" width="72" height="28" fill="#9a8ade" />
  <rect x="748" y="258" width="40" height="20" fill="#aa9aee" />
  <rect x="760" y="244" width="16" height="16" fill="#ffdd00" filter="url(#glow)" />
  
  <rect x="680" y="426" width="176" height="36" fill="#8a7ace" />

  
  <rect x="744" y="680" width="48" height="116" fill="#ffaa00" />
  <rect x="748" y="684" width="40" height="108" fill="#cc8800" />
  
  <rect x="740" y="676" width="56" height="8" fill="#ffcc44" />
  <rect x="740" y="676" width="8" height="120" fill="#ffcc44" />
  <rect x="788" y="676" width="8" height="120" fill="#ffcc44" />

  
  <rect x="548" y="580" width="32" height="28" fill="#00ffcc" opacity="0.8" filter="url(#glow)" />
  <rect x="596" y="580" width="32" height="28" fill="#00ffcc" opacity="0.8" filter="url(#glow)" />
  <rect x="644" y="580" width="32" height="28" fill="#00ffcc" opacity="0.5" />
  <rect x="860" y="580" width="32" height="28" fill="#00ffcc" opacity="0.8" filter="url(#glow)" />
  <rect x="908" y="580" width="32" height="28" fill="#00ffcc" opacity="0.5" />
  <rect x="956" y="580" width="32" height="28" fill="#00ffcc" opacity="0.8" filter="url(#glow)" />

  
  <rect x="420" y="800" width="696" height="16" fill="#5a4a9e" />
  <rect x="400" y="812" width="736" height="12" fill="#4a3a8e" />
  <rect x="380" y="820" width="776" height="12" fill="#3a2a7e" />
  <rect x="360" y="828" width="816" height="180" fill="#2a1a5e" />

  
  
  <rect x="390" y="680" width="32" height="8" fill="#ff88cc" />
  <rect x="394" y="672" width="24" height="8" fill="#ffccaa" />
  <rect x="390" y="688" width="32" height="48" fill="#cc2266" />
  <rect x="390" y="736" width="32" height="56" fill="#882244" />
  
  <rect x="374" y="692" width="16" height="8" fill="#cc2266" />
  <rect x="422" y="692" width="16" height="8" fill="#cc2266" />
  
  <rect x="390" y="664" width="8" height="8" fill="#ffff00" filter="url(#glow)" />
  <rect x="400" y="660" width="8" height="8" fill="#ff88ff" filter="url(#glow)" />
  <rect x="410" y="664" width="8" height="8" fill="#ffffff" filter="url(#glow)" />
  
  <rect x="394" y="788" width="12" height="24" fill="#882244" />
  <rect x="410" y="788" width="12" height="24" fill="#882244" />
  
  <rect x="390" y="808" width="16" height="8" fill="#663322" />
  <rect x="408" y="808" width="16" height="8" fill="#663322" />

  
  <rect x="340" y="580" width="8" height="220" fill="#886600" />
  <rect x="344" y="580" width="80" height="56" fill="#ff0000" />
  
  <rect x="348" y="588" width="12" height="12" fill="#ffff00" />
  <rect x="356" y="584" width="8" height="8" fill="#00ff88" />
  <rect x="364" y="588" width="12" height="12" fill="#00aaff" />
  <rect x="356" y="596" width="8" height="16" fill="#ffaa00" />
  <rect x="352" y="608" width="16" height="8" fill="#ffaa00" />

  
  <rect x="1100" y="640" width="16" height="16" fill="#ffdd00" filter="url(#glow)" />
  <rect x="1130" y="660" width="16" height="16" fill="#ffdd00" opacity="0.6" />
  <rect x="1070" y="660" width="12" height="12" fill="#ffdd00" opacity="0.5" />

  
  <rect x="40" y="40" width="300" height="56" fill="#000022" opacity="0.8" />
  <rect x="40" y="40" width="300" height="4" fill="#00ffcc" />
  <rect x="40" y="92" width="300" height="4" fill="#00ffcc" />
  <rect x="40" y="40" width="4" height="56" fill="#00ffcc" />
  <rect x="336" y="40" width="4" height="56" fill="#00ffcc" />
  <text x="56" y="76" font-family="monospace" font-size="22" fill="#00ffcc" filter="url(#glow)">DATE: 01 APR 2012</text>

  
  <rect x="40" y="112" width="200" height="36" fill="#000022" opacity="0.8" />
  <rect x="40" y="112" width="200" height="3" fill="#ff88cc" />
  <rect x="40" y="145" width="200" height="3" fill="#ff88cc" />
  <text x="56" y="135" font-family="monospace" font-size="18" fill="#ff88cc" filter="url(#glow)">PLAYER: ASSK</text>

  
  <rect x="1196" y="40" width="300" height="56" fill="#000022" opacity="0.8" />
  <rect x="1196" y="40" width="300" height="4" fill="#ffdd00" />
  <rect x="1196" y="92" width="300" height="4" fill="#ffdd00" />
  <rect x="1196" y="40" width="4" height="56" fill="#ffdd00" />
  <rect x="1492" y="40" width="4" height="56" fill="#ffdd00" />
  <text x="1212" y="68" font-family="monospace" font-size="18" fill="#ffdd00" filter="url(#glow)">NLD SEATS WON</text>
  <text x="1212" y="88" font-family="monospace" font-size="22" fill="#ffdd00" filter="url(#glow)">43 / 45  ★★★</text>

  
  <rect x="80" y="168" width="1376" height="220" fill="#000033" opacity="0.85" />
  <rect x="80" y="168" width="1376" height="8" fill="#ff88cc" />
  <rect x="80" y="380" width="1376" height="8" fill="#ff88cc" />
  <rect x="80" y="168" width="8" height="220" fill="#ff88cc" />
  <rect x="1448" y="168" width="8" height="220" fill="#ff88cc" />

  
  <rect x="88" y="176" width="16" height="16" fill="#ffdd00" />
  <rect x="1432" y="176" width="16" height="16" fill="#ffdd00" />
  <rect x="88" y="364" width="16" height="16" fill="#ffdd00" />
  <rect x="1432" y="364" width="16" height="16" fill="#ffdd00" />

  
  <text x="768" y="270" font-family="monospace" font-size="62" font-weight="bold" fill="#ff88cc" text-anchor="middle" filter="url(#glow)">AUNG SAN SUU KYI</text>
  <text x="768" y="350" font-family="monospace" font-size="46" font-weight="bold" fill="#ffdd00" text-anchor="middle" filter="url(#glow)">ENTERS MYANMAR'S PARLIAMENT</text>

  
  <rect x="80" y="896" width="1376" height="60" fill="#000022" opacity="0.9" />
  <rect x="80" y="896" width="1376" height="4" fill="#00ffcc" />
  <text x="768" y="937" font-family="monospace" font-size="26" fill="#00ffcc" text-anchor="middle" filter="url(#glow)">★  KAWHMU CONSTITUENCY  ·  BY-ELECTION VICTORY  ·  2012  ★</text>

  
  <rect x="470" y="400" width="8" height="8" fill="#ffdd00" filter="url(#glow)" />
  <rect x="490" y="440" width="8" height="8" fill="#ff88cc" filter="url(#glow)" />
  <rect x="1050" y="410" width="8" height="8" fill="#ffdd00" filter="url(#glow)" />
  <rect x="1070" y="450" width="8" height="8" fill="#00ffcc" filter="url(#glow)" />
  <rect x="1080" y="380" width="8" height="8" fill="#ff88cc" filter="url(#glow)" />
  <rect x="460" y="380" width="8" height="8" fill="#00ffcc" filter="url(#glow)" />

  
  <rect x="0" y="0" width="1536" height="1024" fill="url(#scanlines)" />

  
  <radialGradient id="vignette" cx="50%" cy="50%" r="75%">
    <stop offset="60%" stop-color="transparent" />
    <stop offset="100%" stop-color="#000000" stop-opacity="0.6" />
  </radialGradient>
  <rect x="0" y="0" width="1536" height="1024" fill="url(#vignette)" />
</svg>