<svg xmlns="http://www.w3.org/2000/svg" viewBox="0 0 1536 1024" role="img" width="1536" height="1024">
  <title>East London Regeneration and the 2012 Olympic Legacy</title>
  <defs>
    <radialGradient id="crt" cx="50%" cy="50%" r="70%">
      <stop offset="0%" stop-color="#1a0a2e" />
      <stop offset="100%" stop-color="#050010" />
    </radialGradient>
    <filter id="glow">
      <feGaussianBlur stdDeviation="4" result="blur" />
      <feMerge><feMergeNode in="blur" /><feMergeNode in="SourceGraphic" /></feMerge>
    </filter>
  </defs>

  
  <rect width="1536" height="1024" fill="url(#crt)" />

  
  <rect width="1536" height="1024" fill="none" stroke="#ffffff" stroke-width="0.5" opacity="0.03" />
  
  <g opacity="0.06">
    <rect x="0" y="0" width="1536" height="2" fill="#000" />
    <rect x="0" y="4" width="1536" height="2" fill="#000" />
    <rect x="0" y="8" width="1536" height="2" fill="#000" />
    <rect x="0" y="12" width="1536" height="2" fill="#000" />
    <rect x="0" y="16" width="1536" height="2" fill="#000" />
    <rect x="0" y="20" width="1536" height="2" fill="#000" />
    <rect x="0" y="24" width="1536" height="2" fill="#000" />
    <rect x="0" y="28" width="1536" height="2" fill="#000" />
    <rect x="0" y="32" width="1536" height="2" fill="#000" />
    <rect x="0" y="36" width="1536" height="2" fill="#000" />
    <rect x="0" y="40" width="1536" height="2" fill="#000" />
    <rect x="0" y="44" width="1536" height="2" fill="#000" />
    <rect x="0" y="48" width="1536" height="2" fill="#000" />
    <rect x="0" y="52" width="1536" height="2" fill="#000" />
    <rect x="0" y="56" width="1536" height="2" fill="#000" />
    <rect x="0" y="60" width="1536" height="2" fill="#000" />
    <rect x="0" y="64" width="1536" height="2" fill="#000" />
    <rect x="0" y="68" width="1536" height="2" fill="#000" />
    <rect x="0" y="72" width="1536" height="2" fill="#000" />
    <rect x="0" y="76" width="1536" height="2" fill="#000" />
    <rect x="0" y="80" width="1536" height="2" fill="#000" />
    <rect x="0" y="84" width="1536" height="2" fill="#000" />
    <rect x="0" y="88" width="1536" height="2" fill="#000" />
    <rect x="0" y="92" width="1536" height="2" fill="#000" />
    <rect x="0" y="96" width="1536" height="2" fill="#000" />
    <rect x="0" y="100" width="1536" height="2" fill="#000" />
    <rect x="0" y="104" width="1536" height="2" fill="#000" />
    <rect x="0" y="108" width="1536" height="2" fill="#000" />
    <rect x="0" y="112" width="1536" height="2" fill="#000" />
    <rect x="0" y="116" width="1536" height="2" fill="#000" />
    <rect x="0" y="120" width="1536" height="2" fill="#000" />
    <rect x="0" y="124" width="1536" height="2" fill="#000" />
    <rect x="0" y="128" width="1536" height="2" fill="#000" />
    <rect x="0" y="132" width="1536" height="2" fill="#000" />
    <rect x="0" y="136" width="1536" height="2" fill="#000" />
    <rect x="0" y="140" width="1536" height="2" fill="#000" />
    <rect x="0" y="144" width="1536" height="2" fill="#000" />
    <rect x="0" y="148" width="1536" height="2" fill="#000" />
    <rect x="0" y="152" width="1536" height="2" fill="#000" />
    <rect x="0" y="156" width="1536" height="2" fill="#000" />
    <rect x="0" y="160" width="1536" height="2" fill="#000" />
    <rect x="0" y="164" width="1536" height="2" fill="#000" />
    <rect x="0" y="168" width="1536" height="2" fill="#000" />
    <rect x="0" y="172" width="1536" height="2" fill="#000" />
    <rect x="0" y="176" width="1536" height="2" fill="#000" />
    <rect x="0" y="180" width="1536" height="2" fill="#000" />
    <rect x="0" y="184" width="1536" height="2" fill="#000" />
    <rect x="0" y="188" width="1536" height="2" fill="#000" />
    <rect x="0" y="192" width="1536" height="2" fill="#000" />
    <rect x="0" y="196" width="1536" height="2" fill="#000" />
    <rect x="0" y="200" width="1536" height="2" fill="#000" />
    <rect x="0" y="204" width="1536" height="2" fill="#000" />
    <rect x="0" y="208" width="1536" height="2" fill="#000" />
    <rect x="0" y="212" width="1536" height="2" fill="#000" />
    <rect x="0" y="216" width="1536" height="2" fill="#000" />
    <rect x="0" y="220" width="1536" height="2" fill="#000" />
    <rect x="0" y="224" width="1536" height="2" fill="#000" />
    <rect x="0" y="228" width="1536" height="2" fill="#000" />
    <rect x="0" y="232" width="1536" height="2" fill="#000" />
    <rect x="0" y="236" width="1536" height="2" fill="#000" />
    <rect x="0" y="240" width="1536" height="2" fill="#000" />
    <rect x="0" y="244" width="1536" height="2" fill="#000" />
    <rect x="0" y="248" width="1536" height="2" fill="#000" />
    <rect x="0" y="252" width="1536" height="2" fill="#000" />
    <rect x="0" y="256" width="1536" height="2" fill="#000" />
    <rect x="0" y="260" width="1536" height="2" fill="#000" />
    <rect x="0" y="264" width="1536" height="2" fill="#000" />
    <rect x="0" y="268" width="1536" height="2" fill="#000" />
    <rect x="0" y="272" width="1536" height="2" fill="#000" />
    <rect x="0" y="276" width="1536" height="2" fill="#000" />
    <rect x="0" y="280" width="1536" height="2" fill="#000" />
    <rect x="0" y="284" width="1536" height="2" fill="#000" />
    <rect x="0" y="288" width="1536" height="2" fill="#000" />
    <rect x="0" y="292" width="1536" height="2" fill="#000" />
    <rect x="0" y="296" width="1536" height="2" fill="#000" />
    <rect x="0" y="300" width="1536" height="2" fill="#000" />
    <rect x="0" y="304" width="1536" height="2" fill="#000" />
    <rect x="0" y="308" width="1536" height="2" fill="#000" />
    <rect x="0" y="312" width="1536" height="2" fill="#000" />
    <rect x="0" y="316" width="1536" height="2" fill="#000" />
    <rect x="0" y="320" width="1536" height="2" fill="#000" />
    <rect x="0" y="324" width="1536" height="2" fill="#000" />
    <rect x="0" y="328" width="1536" height="2" fill="#000" />
    <rect x="0" y="332" width="1536" height="2" fill="#000" />
    <rect x="0" y="336" width="1536" height="2" fill="#000" />
    <rect x="0" y="340" width="1536" height="2" fill="#000" />
    <rect x="0" y="344" width="1536" height="2" fill="#000" />
    <rect x="0" y="348" width="1536" height="2" fill="#000" />
    <rect x="0" y="352" width="1536" height="2" fill="#000" />
    <rect x="0" y="356" width="1536" height="2" fill="#000" />
    <rect x="0" y="360" width="1536" height="2" fill="#000" />
    <rect x="0" y="364" width="1536" height="2" fill="#000" />
    <rect x="0" y="368" width="1536" height="2" fill="#000" />
    <rect x="0" y="372" width="1536" height="2" fill="#000" />
    <rect x="0" y="376" width="1536" height="2" fill="#000" />
    <rect x="0" y="380" width="1536" height="2" fill="#000" />
    <rect x="0" y="384" width="1536" height="2" fill="#000" />
    <rect x="0" y="388" width="1536" height="2" fill="#000" />
    <rect x="0" y="392" width="1536" height="2" fill="#000" />
    <rect x="0" y="396" width="1536" height="2" fill="#000" />
    <rect x="0" y="400" width="1536" height="2" fill="#000" />
    <rect x="0" y="404" width="1536" height="2" fill="#000" />
    <rect x="0" y="408" width="1536" height="2" fill="#000" />
    <rect x="0" y="412" width="1536" height="2" fill="#000" />
    <rect x="0" y="416" width="1536" height="2" fill="#000" />
    <rect x="0" y="420" width="1536" height="2" fill="#000" />
    <rect x="0" y="424" width="1536" height="2" fill="#000" />
    <rect x="0" y="428" width="1536" height="2" fill="#000" />
    <rect x="0" y="432" width="1536" height="2" fill="#000" />
    <rect x="0" y="436" width="1536" height="2" fill="#000" />
    <rect x="0" y="440" width="1536" height="2" fill="#000" />
    <rect x="0" y="444" width="1536" height="2" fill="#000" />
    <rect x="0" y="448" width="1536" height="2" fill="#000" />
    <rect x="0" y="452" width="1536" height="2" fill="#000" />
    <rect x="0" y="456" width="1536" height="2" fill="#000" />
    <rect x="0" y="460" width="1536" height="2" fill="#000" />
    <rect x="0" y="464" width="1536" height="2" fill="#000" />
    <rect x="0" y="468" width="1536" height="2" fill="#000" />
    <rect x="0" y="472" width="1536" height="2" fill="#000" />
    <rect x="0" y="476" width="1536" height="2" fill="#000" />
    <rect x="0" y="480" width="1536" height="2" fill="#000" />
    <rect x="0" y="484" width="1536" height="2" fill="#000" />
    <rect x="0" y="488" width="1536" height="2" fill="#000" />
    <rect x="0" y="492" width="1536" height="2" fill="#000" />
    <rect x="0" y="496" width="1536" height="2" fill="#000" />
    <rect x="0" y="500" width="1536" height="2" fill="#000" />
    <rect x="0" y="504" width="1536" height="2" fill="#000" />
    <rect x="0" y="508" width="1536" height="2" fill="#000" />
    <rect x="0" y="512" width="1536" height="2" fill="#000" />
    <rect x="0" y="516" width="1536" height="2" fill="#000" />
    <rect x="0" y="520" width="1536" height="2" fill="#000" />
    <rect x="0" y="524" width="1536" height="2" fill="#000" />
    <rect x="0" y="528" width="1536" height="2" fill="#000" />
    <rect x="0" y="532" width="1536" height="2" fill="#000" />
    <rect x="0" y="536" width="1536" height="2" fill="#000" />
    <rect x="0" y="540" width="1536" height="2" fill="#000" />
    <rect x="0" y="544" width="1536" height="2" fill="#000" />
    <rect x="0" y="548" width="1536" height="2" fill="#000" />
    <rect x="0" y="552" width="1536" height="2" fill="#000" />
    <rect x="0" y="556" width="1536" height="2" fill="#000" />
    <rect x="0" y="560" width="1536" height="2" fill="#000" />
    <rect x="0" y="564" width="1536" height="2" fill="#000" />
    <rect x="0" y="568" width="1536" height="2" fill="#000" />
    <rect x="0" y="572" width="1536" height="2" fill="#000" />
    <rect x="0" y="576" width="1536" height="2" fill="#000" />
    <rect x="0" y="580" width="1536" height="2" fill="#000" />
    <rect x="0" y="584" width="1536" height="2" fill="#000" />
    <rect x="0" y="588" width="1536" height="2" fill="#000" />
    <rect x="0" y="592" width="1536" height="2" fill="#000" />
    <rect x="0" y="596" width="1536" height="2" fill="#000" />
    <rect x="0" y="600" width="1536" height="2" fill="#000" />
    <rect x="0" y="604" width="1536" height="2" fill="#000" />
    <rect x="0" y="608" width="1536" height="2" fill="#000" />
    <rect x="0" y="612" width="1536" height="2" fill="#000" />
    <rect x="0" y="616" width="1536" height="2" fill="#000" />
    <rect x="0" y="620" width="1536" height="2" fill="#000" />
    <rect x="0" y="624" width="1536" height="2" fill="#000" />
    <rect x="0" y="628" width="1536" height="2" fill="#000" />
    <rect x="0" y="632" width="1536" height="2" fill="#000" />
    <rect x="0" y="636" width="1536" height="2" fill="#000" />
    <rect x="0" y="640" width="1536" height="2" fill="#000" />
    <rect x="0" y="644" width="1536" height="2" fill="#000" />
    <rect x="0" y="648" width="1536" height="2" fill="#000" />
    <rect x="0" y="652" width="1536" height="2" fill="#000" />
    <rect x="0" y="656" width="1536" height="2" fill="#000" />
    <rect x="0" y="660" width="1536" height="2" fill="#000" />
    <rect x="0" y="664" width="1536" height="2" fill="#000" />
    <rect x="0" y="668" width="1536" height="2" fill="#000" />
    <rect x="0" y="672" width="1536" height="2" fill="#000" />
    <rect x="0" y="676" width="1536" height="2" fill="#000" />
    <rect x="0" y="680" width="1536" height="2" fill="#000" />
    <rect x="0" y="684" width="1536" height="2" fill="#000" />
    <rect x="0" y="688" width="1536" height="2" fill="#000" />
    <rect x="0" y="692" width="1536" height="2" fill="#000" />
    <rect x="0" y="696" width="1536" height="2" fill="#000" />
    <rect x="0" y="700" width="1536" height="2" fill="#000" />
    <rect x="0" y="704" width="1536" height="2" fill="#000" />
    <rect x="0" y="708" width="1536" height="2" fill="#000" />
    <rect x="0" y="712" width="1536" height="2" fill="#000" />
    <rect x="0" y="716" width="1536" height="2" fill="#000" />
    <rect x="0" y="720" width="1536" height="2" fill="#000" />
    <rect x="0" y="724" width="1536" height="2" fill="#000" />
    <rect x="0" y="728" width="1536" height="2" fill="#000" />
    <rect x="0" y="732" width="1536" height="2" fill="#000" />
    <rect x="0" y="736" width="1536" height="2" fill="#000" />
    <rect x="0" y="740" width="1536" height="2" fill="#000" />
    <rect x="0" y="744" width="1536" height="2" fill="#000" />
    <rect x="0" y="748" width="1536" height="2" fill="#000" />
    <rect x="0" y="752" width="1536" height="2" fill="#000" />
    <rect x="0" y="756" width="1536" height="2" fill="#000" />
    <rect x="0" y="760" width="1536" height="2" fill="#000" />
    <rect x="0" y="764" width="1536" height="2" fill="#000" />
    <rect x="0" y="768" width="1536" height="2" fill="#000" />
    <rect x="0" y="772" width="1536" height="2" fill="#000" />
    <rect x="0" y="776" width="1536" height="2" fill="#000" />
    <rect x="0" y="780" width="1536" height="2" fill="#000" />
    <rect x="0" y="784" width="1536" height="2" fill="#000" />
    <rect x="0" y="788" width="1536" height="2" fill="#000" />
    <rect x="0" y="792" width="1536" height="2" fill="#000" />
    <rect x="0" y="796" width="1536" height="2" fill="#000" />
    <rect x="0" y="800" width="1536" height="2" fill="#000" />
    <rect x="0" y="804" width="1536" height="2" fill="#000" />
    <rect x="0" y="808" width="1536" height="2" fill="#000" />
    <rect x="0" y="812" width="1536" height="2" fill="#000" />
    <rect x="0" y="816" width="1536" height="2" fill="#000" />
    <rect x="0" y="820" width="1536" height="2" fill="#000" />
    <rect x="0" y="824" width="1536" height="2" fill="#000" />
    <rect x="0" y="828" width="1536" height="2" fill="#000" />
    <rect x="0" y="832" width="1536" height="2" fill="#000" />
    <rect x="0" y="836" width="1536" height="2" fill="#000" />
    <rect x="0" y="840" width="1536" height="2" fill="#000" />
    <rect x="0" y="844" width="1536" height="2" fill="#000" />
    <rect x="0" y="848" width="1536" height="2" fill="#000" />
    <rect x="0" y="852" width="1536" height="2" fill="#000" />
    <rect x="0" y="856" width="1536" height="2" fill="#000" />
    <rect x="0" y="860" width="1536" height="2" fill="#000" />
    <rect x="0" y="864" width="1536" height="2" fill="#000" />
    <rect x="0" y="868" width="1536" height="2" fill="#000" />
    <rect x="0" y="872" width="1536" height="2" fill="#000" />
    <rect x="0" y="876" width="1536" height="2" fill="#000" />
    <rect x="0" y="880" width="1536" height="2" fill="#000" />
    <rect x="0" y="884" width="1536" height="2" fill="#000" />
    <rect x="0" y="888" width="1536" height="2" fill="#000" />
    <rect x="0" y="892" width="1536" height="2" fill="#000" />
    <rect x="0" y="896" width="1536" height="2" fill="#000" />
    <rect x="0" y="900" width="1536" height="2" fill="#000" />
    <rect x="0" y="904" width="1536" height="2" fill="#000" />
    <rect x="0" y="908" width="1536" height="2" fill="#000" />
    <rect x="0" y="912" width="1536" height="2" fill="#000" />
    <rect x="0" y="916" width="1536" height="2" fill="#000" />
    <rect x="0" y="920" width="1536" height="2" fill="#000" />
    <rect x="0" y="924" width="1536" height="2" fill="#000" />
    <rect x="0" y="928" width="1536" height="2" fill="#000" />
    <rect x="0" y="932" width="1536" height="2" fill="#000" />
    <rect x="0" y="936" width="1536" height="2" fill="#000" />
    <rect x="0" y="940" width="1536" height="2" fill="#000" />
    <rect x="0" y="944" width="1536" height="2" fill="#000" />
    <rect x="0" y="948" width="1536" height="2" fill="#000" />
    <rect x="0" y="952" width="1536" height="2" fill="#000" />
    <rect x="0" y="956" width="1536" height="2" fill="#000" />
    <rect x="0" y="960" width="1536" height="2" fill="#000" />
    <rect x="0" y="964" width="1536" height="2" fill="#000" />
    <rect x="0" y="968" width="1536" height="2" fill="#000" />
    <rect x="0" y="972" width="1536" height="2" fill="#000" />
    <rect x="0" y="976" width="1536" height="2" fill="#000" />
    <rect x="0" y="980" width="1536" height="2" fill="#000" />
    <rect x="0" y="984" width="1536" height="2" fill="#000" />
    <rect x="0" y="988" width="1536" height="2" fill="#000" />
    <rect x="0" y="992" width="1536" height="2" fill="#000" />
    <rect x="0" y="996" width="1536" height="2" fill="#000" />
    <rect x="0" y="1000" width="1536" height="2" fill="#000" />
    <rect x="0" y="1004" width="1536" height="2" fill="#000" />
    <rect x="0" y="1008" width="1536" height="2" fill="#000" />
    <rect x="0" y="1012" width="1536" height="2" fill="#000" />
    <rect x="0" y="1016" width="1536" height="2" fill="#000" />
    <rect x="0" y="1020" width="1536" height="2" fill="#000" />
  </g>

  
  
  <rect x="0" y="760" width="1536" height="264" fill="#2d1a00" />
  
  <rect x="0" y="760" width="1536" height="16" fill="#3a2200" />
  <rect x="0" y="792" width="1536" height="8" fill="#1a0d00" />
  <rect x="0" y="820" width="400" height="8" fill="#3d2800" />
  <rect x="0" y="840" width="300" height="8" fill="#1a0d00" />
  
  <rect x="80" y="768" width="16" height="16" fill="#00ff41" opacity="0.4" />
  <rect x="160" y="776" width="8" height="8" fill="#00ff41" opacity="0.3" />
  <rect x="240" y="768" width="16" height="8" fill="#00ff41" opacity="0.35" />
  <rect x="340" y="772" width="8" height="16" fill="#00ff41" opacity="0.25" />
  <rect x="420" y="768" width="24" height="8" fill="#7fff00" opacity="0.2" />

  
  <rect x="0" y="0" width="1536" height="760" fill="#0a0020" />
  
  <rect x="100" y="50" width="4" height="4" fill="#ffffff" />
  <rect x="250" y="80" width="4" height="4" fill="#ffff88" />
  <rect x="400" y="30" width="4" height="4" fill="#ffffff" />
  <rect x="550" y="100" width="4" height="4" fill="#ffffff" />
  <rect x="700" y="45" width="4" height="4" fill="#88ffff" />
  <rect x="900" y="70" width="4" height="4" fill="#ffffff" />
  <rect x="1100" y="35" width="4" height="4" fill="#ffff88" />
  <rect x="1300" y="90" width="4" height="4" fill="#ffffff" />
  <rect x="1450" y="55" width="4" height="4" fill="#ffffff" />
  <rect x="180" y="130" width="4" height="4" fill="#ffffff" opacity="0.6" />
  <rect x="800" y="110" width="4" height="4" fill="#ffffff" opacity="0.5" />
  <rect x="1200" y="120" width="4" height="4" fill="#ffffff" opacity="0.7" />
  <rect x="60" y="180" width="4" height="4" fill="#aaaaff" opacity="0.5" />
  <rect x="480" y="160" width="4" height="4" fill="#ffffff" opacity="0.6" />
  <rect x="1380" y="150" width="4" height="4" fill="#ffaaaa" opacity="0.5" />

  
  <g filter="url(#glow)">
    
    <rect x="120" y="580" width="440" height="180" fill="#1a4a8a" />
    
    <rect x="100" y="540" width="480" height="48" fill="#2266bb" />
    <rect x="80" y="528" width="520" height="20" fill="#1a55aa" />
    
    <rect x="120" y="488" width="16" height="52" fill="#3388ee" />
    <rect x="200" y="472" width="16" height="68" fill="#3388ee" />
    <rect x="280" y="460" width="16" height="80" fill="#44aaff" />
    <rect x="360" y="472" width="16" height="68" fill="#3388ee" />
    <rect x="440" y="488" width="16" height="52" fill="#3388ee" />
    <rect x="520" y="500" width="16" height="40" fill="#2277cc" />
    
    <rect x="120" y="476" width="400" height="4" fill="#88ccff" />
    <rect x="120" y="468" width="320" height="4" fill="#66aadd" />
    
    <rect x="160" y="600" width="24" height="24" fill="#ffff00" />
    <rect x="216" y="600" width="24" height="24" fill="#ffff00" />
    <rect x="272" y="600" width="24" height="24" fill="#ffee00" />
    <rect x="328" y="600" width="24" height="24" fill="#ffff00" />
    <rect x="384" y="600" width="24" height="24" fill="#ffff00" />
    <rect x="440" y="600" width="24" height="24" fill="#ffee00" />
    
    <rect x="276" y="700" width="88" height="60" fill="#0a2255" />
    <rect x="284" y="708" width="72" height="52" fill="#00115a" />
    
    <rect x="140" y="640" width="360" height="48" fill="#cc3300" />
    <rect x="160" y="648" width="320" height="32" fill="#aa2200" />
    
    <rect x="188" y="648" width="264" height="32" fill="#006600" />
  </g>

  
  <g filter="url(#glow)">
    
    <rect x="950" y="560" width="340" height="200" fill="#cc4400" />
    
    <rect x="930" y="520" width="380" height="48" fill="#ff6600" />
    <rect x="910" y="500" width="420" height="24" fill="#ff8800" />
    <rect x="890" y="488" width="460" height="16" fill="#ffaa00" />
    <rect x="870" y="480" width="500" height="12" fill="#ff8800" />
    
    <rect x="930" y="474" width="380" height="8" fill="#ffcc44" />
    
    <rect x="970" y="580" width="20" height="20" fill="#ffeeaa" />
    <rect x="1010" y="580" width="20" height="20" fill="#ffeeaa" />
    <rect x="1050" y="580" width="20" height="20" fill="#ffeeaa" />
    <rect x="1090" y="580" width="20" height="20" fill="#ffeeaa" />
    <rect x="1130" y="580" width="20" height="20" fill="#ffeeaa" />
    <rect x="1170" y="580" width="20" height="20" fill="#ffeeaa" />
    <rect x="1210" y="580" width="20" height="20" fill="#ffeeaa" />
    
    <rect x="1080" y="700" width="60" height="60" fill="#552200" />
  </g>

  
  <g filter="url(#glow)">
    
    <rect x="690" y="380" width="16" height="380" fill="#cc0044" />
    
    <rect x="660" y="360" width="76" height="32" fill="#ff0066" />
    <rect x="648" y="352" width="100" height="16" fill="#dd0055" />
    
    <rect x="674" y="420" width="32" height="8" fill="#ff0044" />
    <rect x="666" y="428" width="8" height="24" fill="#ff0044" />
    <rect x="706" y="428" width="8" height="24" fill="#ff0044" />
    <rect x="674" y="452" width="32" height="8" fill="#ff0044" />

    <rect x="662" y="480" width="32" height="8" fill="#ee0033" />
    <rect x="654" y="488" width="8" height="24" fill="#ee0033" />
    <rect x="694" y="488" width="8" height="24" fill="#ee0033" />
    <rect x="662" y="512" width="32" height="8" fill="#ee0033" />

    <rect x="674" y="540" width="36" height="8" fill="#ff0044" />
    <rect x="666" y="548" width="8" height="24" fill="#ff0044" />
    <rect x="710" y="548" width="8" height="24" fill="#ff0044" />
    <rect x="674" y="572" width="36" height="8" fill="#ff0044" />

    
    <rect x="680" y="740" width="36" height="20" fill="#880022" />
    <rect x="660" y="755" width="76" height="5" fill="#660011" />
  </g>

  
  
  <g filter="url(#glow)">
    
    <rect x="580" y="780" width="72" height="72" rx="0" fill="none" />
    
    <rect x="580" y="784" width="64" height="8" fill="#0085c7" />
    <rect x="580" y="836" width="64" height="8" fill="#0085c7" />
    <rect x="580" y="792" width="8" height="44" fill="#0085c7" />
    <rect x="636" y="792" width="8" height="44" fill="#0085c7" />

    
    <rect x="628" y="800" width="64" height="8" fill="#333333" />
    <rect x="628" y="852" width="64" height="8" fill="#333333" />
    <rect x="628" y="808" width="8" height="44" fill="#333333" />
    <rect x="684" y="808" width="8" height="44" fill="#333333" />

    
    <rect x="676" y="784" width="64" height="8" fill="#df0024" />
    <rect x="676" y="836" width="64" height="8" fill="#df0024" />
    <rect x="676" y="792" width="8" height="44" fill="#df0024" />
    <rect x="732" y="792" width="8" height="44" fill="#df0024" />

    
    <rect x="724" y="800" width="64" height="8" fill="#f4c300" />
    <rect x="724" y="852" width="64" height="8" fill="#f4c300" />
    <rect x="724" y="808" width="8" height="44" fill="#f4c300" />
    <rect x="780" y="808" width="8" height="44" fill="#f4c300" />

    
    <rect x="772" y="784" width="64" height="8" fill="#009f6b" />
    <rect x="772" y="836" width="64" height="8" fill="#009f6b" />
    <rect x="772" y="792" width="8" height="44" fill="#009f6b" />
    <rect x="828" y="792" width="8" height="44" fill="#009f6b" />
  </g>

  
  <g opacity="0.85">
    
    <rect x="1350" y="400" width="24" height="360" fill="#ffcc00" />
    <rect x="1358" y="400" width="8" height="360" fill="#ddaa00" />
    
    <rect x="1190" y="400" width="200" height="16" fill="#ffcc00" />
    <rect x="1370" y="400" width="100" height="16" fill="#ddaa00" />
    
    <rect x="1460" y="408" width="48" height="32" fill="#888800" />
    
    <rect x="1270" y="416" width="8" height="80" fill="#aaaaaa" />
    
    <rect x="1258" y="488" width="32" height="8" fill="#888888" />
    <rect x="1258" y="488" width="8" height="16" fill="#888888" />
    <rect x="1282" y="488" width="8" height="16" fill="#888888" />
    
    <rect x="1342" y="760" width="16" height="16" fill="#ffcc00" />
    <rect x="1374" y="760" width="16" height="16" fill="#ffcc00" />
    <rect x="1334" y="770" width="100" height="8" fill="#ddaa00" />
  </g>

  
  
  <rect x="900" y="640" width="48" height="120" fill="#00ccaa" />
  <rect x="908" y="648" width="32" height="8" fill="#00eebb" />
  <rect x="908" y="664" width="32" height="8" fill="#00eebb" />
  <rect x="908" y="680" width="32" height="8" fill="#00eebb" />
  <rect x="908" y="696" width="32" height="8" fill="#00eebb" />
  <rect x="908" y="712" width="32" height="8" fill="#00eebb" />
  <rect x="908" y="728" width="32" height="8" fill="#00eebb" />

  <rect x="856" y="680" width="40" height="80" fill="#0099aa" />
  <rect x="864" y="688" width="24" height="8" fill="#00bbcc" />
  <rect x="864" y="704" width="24" height="8" fill="#00bbcc" />
  <rect x="864" y="720" width="24" height="8" fill="#00bbcc" />
  <rect x="864" y="736" width="24" height="8" fill="#00bbcc" />

  
  <rect x="60" y="660" width="56" height="100" fill="#443322" />
  <rect x="68" y="668" width="16" height="12" fill="#221100" />
  <rect x="92" y="668" width="16" height="12" fill="#221100" />
  <rect x="68" y="692" width="16" height="12" fill="#221100" />
  <rect x="92" y="692" width="16" height="12" fill="#221100" />
  
  <rect x="56" y="752" width="8" height="8" fill="#443322" />
  <rect x="72" y="756" width="8" height="8" fill="#332211" />
  <rect x="116" y="748" width="8" height="8" fill="#443322" />

  
  <g filter="url(#glow)" opacity="0.9">
    
    <rect x="1420" y="200" width="8" height="8" fill="#ff4444" />
    <rect x="1436" y="192" width="8" height="8" fill="#ff4444" />
    <rect x="1452" y="200" width="8" height="8" fill="#ff4444" />
    <rect x="1436" y="216" width="8" height="8" fill="#ff4444" />
    <rect x="1412" y="216" width="8" height="8" fill="#ff6644" />
    <rect x="1460" y="216" width="8" height="8" fill="#ff6644" />
    <rect x="1420" y="184" width="8" height="8" fill="#ff8866" />
    <rect x="1452" y="184" width="8" height="8" fill="#ff8866" />
    
    <rect x="1432" y="196" width="16" height="16" fill="#ffaa00" />

    
    <rect x="1100" y="140" width="8" height="8" fill="#44ffff" />
    <rect x="1116" y="132" width="8" height="8" fill="#44ffff" />
    <rect x="1132" y="140" width="8" height="8" fill="#44ffff" />
    <rect x="1116" y="156" width="8" height="8" fill="#44ffff" />
    <rect x="1092" y="156" width="8" height="8" fill="#66eeff" />
    <rect x="1140" y="156" width="8" height="8" fill="#66eeff" />
    <rect x="1108" y="144" width="16" height="16" fill="#88ffff" />

    
    <rect x="300" y="160" width="8" height="8" fill="#ffff44" />
    <rect x="316" y="152" width="8" height="8" fill="#ffff44" />
    <rect x="332" y="160" width="8" height="8" fill="#ffff44" />
    <rect x="316" y="176" width="8" height="8" fill="#ffff44" />
    <rect x="292" y="176" width="8" height="8" fill="#ffee66" />
    <rect x="340" y="176" width="8" height="8" fill="#ffee66" />
    <rect x="308" y="156" width="16" height="16" fill="#ffffaa" />

    
    <rect x="760" y="100" width="8" height="8" fill="#ff44ff" />
    <rect x="776" y="92" width="8" height="8" fill="#ff44ff" />
    <rect x="792" y="100" width="8" height="8" fill="#ff44ff" />
    <rect x="776" y="116" width="8" height="8" fill="#ff44ff" />
    <rect x="752" y="116" width="8" height="8" fill="#ff66ff" />
    <rect x="800" y="116" width="8" height="8" fill="#ff66ff" />
    <rect x="768" y="96" width="16" height="16" fill="#ffaaff" />
  </g>

  
  <g>
    <rect x="1450" y="40" width="72" height="48" fill="#012169" />
    
    <rect x="1450" y="40" width="72" height="8" fill="#ffffff" />
    <rect x="1450" y="80" width="72" height="8" fill="#ffffff" />
    <rect x="1450" y="40" width="8" height="48" fill="#ffffff" />
    <rect x="1514" y="40" width="8" height="48" fill="#ffffff" />
    <rect x="1480" y="40" width="8" height="48" fill="#ffffff" />
    <rect x="1450" y="60" width="72" height="8" fill="#ffffff" />
    
    <rect x="1484" y="40" width="8" height="48" fill="#c8102e" />
    <rect x="1450" y="60" width="72" height="8" fill="#c8102e" />
    
    <rect x="1446" y="32" width="4" height="200" fill="#888888" />
  </g>

  
  <g filter="url(#glow)">
    
    
    <rect x="420" y="820" width="64" height="8" fill="#ff0080" />
    <rect x="468" y="828" width="16" height="8" fill="#ff0080" />
    <rect x="468" y="836" width="16" height="8" fill="#ff0080" />
    <rect x="420" y="844" width="64" height="8" fill="#ff0080" />
    <rect x="420" y="852" width="16" height="8" fill="#ff0080" />
    <rect x="420" y="860" width="16" height="8" fill="#ff0080" />
    <rect x="420" y="868" width="64" height="8" fill="#ff0080" />
    
    <rect x="500" y="820" width="64" height="8" fill="#00ccff" />
    <rect x="500" y="868" width="64" height="8" fill="#00ccff" />
    <rect x="500" y="828" width="16" height="40" fill="#00ccff" />
    <rect x="548" y="828" width="16" height="40" fill="#00ccff" />
    
    <rect x="580" y="820" width="16" height="56" fill="#ffcc00" />
    <rect x="564" y="820" width="16" height="8" fill="#ffcc00" />
    <rect x="564" y="868" width="48" height="8" fill="#ffcc00" />
    
    <rect x="628" y="820" width="64" height="8" fill="#00ff88" />
    <rect x="676" y="828" width="16" height="8" fill="#00ff88" />
    <rect x="676" y="836" width="16" height="8" fill="#00ff88" />
    <rect x="628" y="844" width="64" height="8" fill="#00ff88" />
    <rect x="628" y="852" width="16" height="8" fill="#00ff88" />
    <rect x="628" y="860" width="16" height="8" fill="#00ff88" />
    <rect x="628" y="868" width="64" height="8" fill="#00ff88" />
  </g>

  
  
  <g>
    <rect x="820" y="720" width="24" height="40" fill="#004400" />
    <rect x="812" y="700" width="40" height="24" fill="#006600" />
    <rect x="820" y="692" width="24" height="12" fill="#008800" />

    <rect x="870" y="730" width="20" height="30" fill="#004400" />
    <rect x="862" y="712" width="36" height="20" fill="#006600" />
    <rect x="870" y="704" width="20" height="12" fill="#007700" />

    
    <rect x="828" y="756" width="8" height="12" fill="#663300" />
    <rect x="876" y="758" width="8" height="10" fill="#663300" />
  </g>

  
  
  <rect x="0" y="0" width="1536" height="310" fill="#000000" opacity="0.55" />

  
  <text x="768" y="110" text-anchor="middle" font-family="'Courier New', Courier, monospace" font-size="100" font-weight="bold" letter-spacing="12" fill="#00ffcc" filter="url(#glow)" paint-order="stroke" stroke="#003322" stroke-width="4">EAST LONDON</text>

  
  <text x="768" y="210" text-anchor="middle" font-family="'Courier New', Courier, monospace" font-size="88" font-weight="bold" letter-spacing="8" fill="#ffcc00" filter="url(#glow)" paint-order="stroke" stroke="#332200" stroke-width="4">REGENERATION</text>

  
  <text x="768" y="292" text-anchor="middle" font-family="'Courier New', Courier, monospace" font-size="52" font-weight="bold" letter-spacing="4" fill="#ff6699" filter="url(#glow)" paint-order="stroke" stroke="#220011" stroke-width="3">&amp; THE 2012 OLYMPIC LEGACY</text>

  
  <rect x="0" y="1006" width="1536" height="18" fill="#00ffcc" opacity="0.6" />
  <rect x="0" y="1014" width="1536" height="10" fill="#ffcc00" opacity="0.4" />

  
  <rect x="0" y="0" width="1536" height="8" fill="#00ffcc" opacity="0.6" />
  <rect x="0" y="4" width="1536" height="4" fill="#ff0080" opacity="0.4" />

  
  <rect x="0" y="0" width="1536" height="1024" fill="none" stroke="#ffffff" stroke-width="0" opacity="0" />
  <rect x="0" y="0" width="200" height="1024" fill="url(#leftVig)" opacity="0.15" />
  <rect x="1336" y="0" width="200" height="1024" fill="url(#rightVig)" opacity="0.15" />
</svg>