<svg xmlns="http://www.w3.org/2000/svg" viewBox="0 0 1536 1024" role="img" width="1536" height="1024">
  <title>Jerry Sandusky and the Penn State Sexual Abuse Scandal – Retro Pixel Art Banner</title>
  <defs>
    <radialGradient id="crtGlow" cx="50%" cy="50%" r="60%">
      <stop offset="0%" stop-color="#001a4a" stop-opacity="0" />
      <stop offset="100%" stop-color="#000008" stop-opacity="0.85" />
    </radialGradient>
    <pattern id="scanlines" x="0" y="0" width="1536" height="4" patternUnits="userSpaceOnUse">
      <rect x="0" y="0" width="1536" height="2" fill="#000000" opacity="0.18" />
      <rect x="0" y="2" width="1536" height="2" fill="#000000" opacity="0" />
    </pattern>
    <filter id="glow">
      <feGaussianBlur stdDeviation="3" result="blur" />
      <feMerge><feMergeNode in="blur" /><feMergeNode in="SourceGraphic" /></feMerge>
    </filter>
    <filter id="glowStrong">
      <feGaussianBlur stdDeviation="6" result="blur" />
      <feMerge><feMergeNode in="blur" /><feMergeNode in="SourceGraphic" /></feMerge>
    </filter>
  </defs>

  
  <rect width="1536" height="1024" fill="#000d1f" />
  <rect width="1536" height="1024" fill="#001030" />

  
  <rect x="0" y="860" width="1536" height="164" fill="#000820" />
  <rect x="0" y="856" width="1536" height="8" fill="#0a1a3a" />

  
  
  <rect x="80" y="380" width="560" height="480" fill="#0a1f5c" />
  
  <rect x="80" y="380" width="560" height="8" fill="#0d2468" />
  <rect x="80" y="396" width="560" height="8" fill="#0d2468" />
  <rect x="80" y="412" width="560" height="8" fill="#0d2468" />
  <rect x="80" y="428" width="560" height="8" fill="#0d2468" />
  <rect x="80" y="444" width="560" height="8" fill="#0d2468" />
  <rect x="80" y="460" width="560" height="8" fill="#0d2468" />
  <rect x="80" y="476" width="560" height="8" fill="#0d2468" />
  <rect x="80" y="492" width="560" height="8" fill="#0d2468" />
  <rect x="80" y="508" width="560" height="8" fill="#0d2468" />
  <rect x="80" y="524" width="560" height="8" fill="#0d2468" />
  <rect x="80" y="540" width="560" height="8" fill="#0d2468" />
  <rect x="80" y="556" width="560" height="8" fill="#0d2468" />
  <rect x="80" y="572" width="560" height="8" fill="#0d2468" />
  <rect x="80" y="588" width="560" height="8" fill="#0d2468" />
  <rect x="80" y="604" width="560" height="8" fill="#0d2468" />
  <rect x="80" y="620" width="560" height="8" fill="#0d2468" />
  <rect x="80" y="636" width="560" height="8" fill="#0d2468" />
  <rect x="80" y="652" width="560" height="8" fill="#0d2468" />
  <rect x="80" y="668" width="560" height="8" fill="#0d2468" />
  <rect x="80" y="684" width="560" height="8" fill="#0d2468" />
  <rect x="80" y="700" width="560" height="8" fill="#0d2468" />
  <rect x="80" y="716" width="560" height="8" fill="#0d2468" />
  <rect x="80" y="732" width="560" height="8" fill="#0d2468" />
  <rect x="80" y="748" width="560" height="8" fill="#0d2468" />
  <rect x="80" y="764" width="560" height="8" fill="#0d2468" />
  <rect x="80" y="780" width="560" height="8" fill="#0d2468" />
  <rect x="80" y="796" width="560" height="8" fill="#0d2468" />
  <rect x="80" y="812" width="560" height="8" fill="#0d2468" />
  <rect x="80" y="828" width="560" height="8" fill="#0d2468" />
  <rect x="80" y="844" width="560" height="8" fill="#0d2468" />

  
  <rect x="100" y="380" width="24" height="480" fill="#1a3a8c" />
  <rect x="172" y="380" width="24" height="480" fill="#1a3a8c" />
  <rect x="244" y="380" width="24" height="480" fill="#1a3a8c" />
  <rect x="316" y="380" width="24" height="480" fill="#1a3a8c" />
  <rect x="388" y="380" width="24" height="480" fill="#1a3a8c" />
  <rect x="460" y="380" width="24" height="480" fill="#1a3a8c" />
  <rect x="532" y="380" width="24" height="480" fill="#1a3a8c" />
  <rect x="608" y="380" width="24" height="480" fill="#1a3a8c" />

  
  <rect x="56" y="340" width="608" height="48" fill="#0d2468" />
  <rect x="56" y="336" width="608" height="8" fill="#1a3a8c" />
  
  <rect x="200" y="268" width="320" height="72" fill="#0a1f5c" />
  <rect x="216" y="260" width="288" height="12" fill="#0d2468" />
  <rect x="240" y="248" width="240" height="16" fill="#0d2468" />
  <rect x="264" y="236" width="192" height="16" fill="#0d2468" />
  <rect x="296" y="220" width="128" height="20" fill="#0d2468" />
  <rect x="320" y="200" width="80" height="24" fill="#1a3a8c" />
  
  <rect x="344" y="148" width="32" height="56" fill="#1a3a8c" />
  <rect x="352" y="120" width="16" height="32" fill="#2a5acc" />
  <rect x="356" y="100" width="8" height="24" fill="#4070ee" />
  
  <rect x="360" y="80" width="4" height="44" fill="#c0c8d8" />
  <rect x="364" y="80" width="20" height="8" fill="#cc0000" />
  <rect x="364" y="88" width="20" height="8" fill="#ffffff" />
  <rect x="364" y="96" width="20" height="8" fill="#cc0000" />

  
  
  <rect x="128" y="416" width="32" height="40" fill="#001a4a" />
  <rect x="200" y="416" width="32" height="40" fill="#001a4a" />
  <rect x="272" y="416" width="32" height="40" fill="#ff2200" opacity="0.7" filter="url(#glow)" />
  <rect x="344" y="416" width="32" height="40" fill="#001a4a" />
  <rect x="416" y="416" width="32" height="40" fill="#ff2200" opacity="0.7" filter="url(#glow)" />
  <rect x="488" y="416" width="32" height="40" fill="#001a4a" />
  <rect x="560" y="416" width="32" height="40" fill="#001a4a" />
  
  <rect x="128" y="488" width="32" height="40" fill="#ff8800" opacity="0.6" filter="url(#glow)" />
  <rect x="200" y="488" width="32" height="40" fill="#001a4a" />
  <rect x="272" y="488" width="32" height="40" fill="#001a4a" />
  <rect x="344" y="488" width="32" height="40" fill="#ff2200" opacity="0.7" filter="url(#glow)" />
  <rect x="416" y="488" width="32" height="40" fill="#001a4a" />
  <rect x="488" y="488" width="32" height="40" fill="#ff8800" opacity="0.6" filter="url(#glow)" />
  <rect x="560" y="488" width="32" height="40" fill="#001a4a" />
  
  <rect x="128" y="560" width="32" height="40" fill="#001a4a" />
  <rect x="200" y="560" width="32" height="40" fill="#ff2200" opacity="0.7" filter="url(#glow)" />
  <rect x="272" y="560" width="32" height="40" fill="#001a4a" />
  <rect x="344" y="560" width="32" height="40" fill="#001a4a" />
  <rect x="416" y="560" width="32" height="40" fill="#001a4a" />
  <rect x="488" y="560" width="32" height="40" fill="#ff2200" opacity="0.7" filter="url(#glow)" />
  <rect x="560" y="560" width="32" height="40" fill="#ff8800" opacity="0.6" filter="url(#glow)" />
  
  <rect x="128" y="632" width="32" height="40" fill="#ff2200" opacity="0.7" filter="url(#glow)" />
  <rect x="200" y="632" width="32" height="40" fill="#001a4a" />
  <rect x="272" y="632" width="32" height="40" fill="#ff8800" opacity="0.6" filter="url(#glow)" />
  <rect x="344" y="632" width="32" height="40" fill="#001a4a" />
  <rect x="416" y="632" width="32" height="40" fill="#ff2200" opacity="0.7" filter="url(#glow)" />
  <rect x="488" y="632" width="32" height="40" fill="#001a4a" />
  <rect x="560" y="632" width="32" height="40" fill="#001a4a" />

  
  <rect x="312" y="720" width="96" height="140" fill="#001020" />
  <rect x="320" y="712" width="80" height="16" fill="#001020" />
  <rect x="328" y="704" width="64" height="16" fill="#001020" />
  <rect x="340" y="696" width="40" height="12" fill="#001020" />
  
  <rect x="316" y="720" width="8" height="140" fill="#0a1a3a" />
  <rect x="332" y="720" width="8" height="140" fill="#0a1a3a" />
  <rect x="348" y="720" width="8" height="140" fill="#0a1a3a" />
  <rect x="364" y="720" width="8" height="140" fill="#0a1a3a" />
  <rect x="380" y="720" width="8" height="140" fill="#0a1a3a" />
  <rect x="396" y="720" width="8" height="140" fill="#0a1a3a" />
  
  <rect x="312" y="760" width="96" height="8" fill="#cc2200" opacity="0.9" />
  <rect x="312" y="800" width="96" height="8" fill="#cc2200" opacity="0.9" />
  <rect x="312" y="840" width="96" height="8" fill="#cc2200" opacity="0.9" />

  
  
  <rect x="252" y="296" width="8" height="32" fill="#4488ff" />
  <rect x="260" y="296" width="16" height="8" fill="#4488ff" />
  <rect x="276" y="296" width="8" height="8" fill="#4488ff" />
  <rect x="276" y="304" width="8" height="8" fill="#4488ff" />
  <rect x="260" y="312" width="16" height="8" fill="#4488ff" />
  
  <rect x="300" y="296" width="24" height="8" fill="#4488ff" />
  <rect x="300" y="296" width="8" height="8" fill="#4488ff" />
  <rect x="300" y="304" width="8" height="8" fill="#4488ff" />
  <rect x="300" y="312" width="24" height="8" fill="#4488ff" />
  <rect x="316" y="320" width="8" height="8" fill="#4488ff" />
  <rect x="300" y="328" width="24" height="8" fill="#4488ff" />
  
  <rect x="340" y="296" width="8" height="32" fill="#4488ff" />
  <rect x="356" y="296" width="8" height="32" fill="#4488ff" />
  <rect x="340" y="328" width="24" height="8" fill="#4488ff" />

  
  
  <rect x="680" y="540" width="24" height="180" fill="#8b5e2a" transform="rotate(-40 680 540)" />
  <rect x="686" y="548" width="12" height="164" fill="#a06a30" transform="rotate(-40 686 548)" />
  
  <rect x="740" y="360" width="100" height="56" fill="#8b5e2a" transform="rotate(-40 740 360)" />
  <rect x="744" y="368" width="92" height="40" fill="#a06a30" transform="rotate(-40 744 368)" />
  <rect x="748" y="372" width="84" height="8" fill="#c08040" transform="rotate(-40 748 372)" />
  
  <rect x="790" y="520" width="16" height="16" fill="#ffff00" filter="url(#glowStrong)" />
  <rect x="782" y="516" width="8" height="8" fill="#ffff44" filter="url(#glow)" />
  <rect x="806" y="508" width="8" height="8" fill="#ffff44" filter="url(#glow)" />
  <rect x="798" y="504" width="8" height="8" fill="#ffff44" filter="url(#glow)" />
  <rect x="774" y="528" width="8" height="8" fill="#ffff44" filter="url(#glow)" />
  <rect x="814" y="532" width="8" height="8" fill="#ffff44" filter="url(#glow)" />
  
  <rect x="780" y="500" width="48" height="8" fill="#eeee00" opacity="0.7" filter="url(#glow)" />
  <rect x="800" y="490" width="8" height="48" fill="#eeee00" opacity="0.7" filter="url(#glow)" />
  <rect x="784" y="500" width="32" height="40" fill="none" />

  
  <rect x="720" y="640" width="120" height="32" fill="#5a3a18" />
  <rect x="712" y="668" width="136" height="16" fill="#3a2008" />

  
  
  <rect x="1100" y="420" width="48" height="8" fill="#8b4513" />
  <rect x="1076" y="428" width="96" height="8" fill="#8b4513" />
  <rect x="1060" y="436" width="128" height="8" fill="#8b4513" />
  <rect x="1052" y="444" width="144" height="8" fill="#8b4513" />
  <rect x="1048" y="452" width="152" height="8" fill="#a0522d" />
  <rect x="1048" y="460" width="152" height="8" fill="#a0522d" />
  <rect x="1048" y="468" width="152" height="8" fill="#a0522d" />
  <rect x="1048" y="476" width="152" height="8" fill="#a0522d" />
  <rect x="1052" y="484" width="144" height="8" fill="#a0522d" />
  <rect x="1060" y="492" width="128" height="8" fill="#8b4513" />
  <rect x="1076" y="500" width="96" height="8" fill="#8b4513" />
  <rect x="1100" y="508" width="48" height="8" fill="#8b4513" />
  
  <rect x="1120" y="444" width="8" height="80" fill="#f5f5dc" />
  <rect x="1104" y="452" width="40" height="8" fill="#f5f5dc" />
  <rect x="1104" y="468" width="40" height="8" fill="#f5f5dc" />
  <rect x="1104" y="484" width="40" height="8" fill="#f5f5dc" />
  <rect x="1104" y="500" width="40" height="8" fill="#f5f5dc" />
  
  <rect x="1064" y="456" width="8" height="8" fill="#5a2a00" />
  <rect x="1072" y="464" width="8" height="8" fill="#5a2a00" />
  <rect x="1064" y="472" width="8" height="8" fill="#5a2a00" />
  <rect x="1056" y="480" width="8" height="8" fill="#5a2a00" />
  
  <rect x="1048" y="420" width="152" height="8" fill="#cc0000" opacity="0.5" />
  <rect x="1048" y="508" width="152" height="8" fill="#cc0000" opacity="0.5" />

  
  <rect x="1280" y="300" width="16" height="560" fill="#334466" />
  <rect x="1328" y="300" width="16" height="560" fill="#334466" />
  <rect x="1376" y="300" width="16" height="560" fill="#334466" />
  <rect x="1424" y="300" width="16" height="560" fill="#334466" />
  <rect x="1472" y="300" width="16" height="560" fill="#334466" />
  
  <rect x="1264" y="296" width="256" height="16" fill="#445577" />
  <rect x="1264" y="848" width="256" height="16" fill="#445577" />
  
  <rect x="1280" y="300" width="4" height="560" fill="#556688" />
  <rect x="1328" y="300" width="4" height="560" fill="#556688" />
  <rect x="1376" y="300" width="4" height="560" fill="#556688" />
  <rect x="1424" y="300" width="4" height="560" fill="#556688" />
  <rect x="1472" y="300" width="4" height="560" fill="#556688" />
  
  <rect x="1264" y="296" width="256" height="568" fill="#440000" opacity="0.3" />

  
  
  <rect x="900" y="180" width="16" height="16" fill="#ffcc00" filter="url(#glow)" />
  <rect x="892" y="188" width="32" height="8" fill="#ffcc00" filter="url(#glow)" />
  <rect x="908" y="172" width="8" height="32" fill="#ffcc00" filter="url(#glow)" />

  <rect x="1040" y="220" width="12" height="12" fill="#ff4400" filter="url(#glow)" />
  <rect x="1034" y="226" width="24" height="6" fill="#ff4400" filter="url(#glow)" />
  <rect x="1040" y="214" width="6" height="24" fill="#ff4400" filter="url(#glow)" />

  <rect x="840" y="760" width="12" height="12" fill="#ffcc00" filter="url(#glow)" />
  <rect x="834" y="766" width="24" height="6" fill="#ffcc00" filter="url(#glow)" />
  <rect x="840" y="754" width="6" height="24" fill="#ffcc00" filter="url(#glow)" />

  
  <rect x="860" y="700" width="8" height="8" fill="#334466" />
  <rect x="876" y="716" width="8" height="8" fill="#334466" />
  <rect x="848" y="724" width="8" height="8" fill="#223355" />
  <rect x="920" y="680" width="8" height="8" fill="#223355" />
  <rect x="940" y="700" width="8" height="8" fill="#334466" />

  
  
  <rect x="888" y="440" width="88" height="8" fill="#c0a030" />
  <rect x="928" y="424" width="8" height="80" fill="#c0a030" />
  
  <rect x="884" y="448" width="8" height="40" fill="#c0a030" />
  <rect x="868" y="488" width="40" height="8" fill="#c0a030" />
  <rect x="864" y="492" width="48" height="24" fill="#b89428" opacity="0.6" />
  
  <rect x="972" y="448" width="8" height="56" fill="#c0a030" />
  <rect x="956" y="504" width="40" height="8" fill="#c0a030" />
  <rect x="952" y="508" width="48" height="24" fill="#b89428" opacity="0.6" />
  
  <rect x="964" y="496" width="8" height="8" fill="#ff2200" opacity="0.8" filter="url(#glow)" />

  
  <rect x="0" y="858" width="1536" height="4" fill="#1a3a6c" />
  <rect x="0" y="862" width="1536" height="4" fill="#0a1a40" />
  
  <rect x="0" y="866" width="1536" height="158" fill="#050f28" />
  
  <rect x="0" y="900" width="1536" height="4" fill="#0a1a40" />
  <rect x="0" y="940" width="1536" height="4" fill="#0a1a40" />
  <rect x="0" y="980" width="1536" height="4" fill="#0a1a40" />

  
  
  <rect x="48" y="900" width="1000" height="108" fill="#000820" opacity="0.8" rx="4" />
  
  <text x="72" y="950" font-family="'Courier New', Courier, monospace" font-size="52" font-weight="bold" letter-spacing="4" fill="#4488ff" filter="url(#glow)">PENN STATE SCANDAL</text>
  
  <text x="72" y="996" font-family="'Courier New', Courier, monospace" font-size="28" font-weight="bold" letter-spacing="2" fill="#cc2200" filter="url(#glow)">JERRY SANDUSKY · CONVICTED 2012 · 45 COUNTS</text>

  
  <rect x="0" y="0" width="1536" height="56" fill="#000820" />
  <rect x="0" y="52" width="1536" height="4" fill="#1a3a6c" />
  
  <text x="24" y="38" font-family="'Courier New', Courier, monospace" font-size="22" fill="#4488ff" letter-spacing="2">PENN STATE</text>
  <text x="240" y="38" font-family="'Courier New', Courier, monospace" font-size="22" fill="#445566" letter-spacing="1">▶</text>
  <text x="280" y="38" font-family="'Courier New', Courier, monospace" font-size="22" fill="#ff4400" letter-spacing="2" filter="url(#glow)">GUILTY × 45</text>
  
  <text x="1200" y="38" font-family="'Courier New', Courier, monospace" font-size="22" fill="#888899" letter-spacing="2">SENTENCE: 30-60 YRS</text>
  
  <rect x="1502" y="18" width="16" height="24" fill="#4488ff" opacity="0.9" filter="url(#glow)" />

  
  <rect x="640" y="4" width="256" height="44" fill="#001440" />
  <rect x="640" y="4" width="256" height="2" fill="#2244aa" />
  <rect x="640" y="46" width="256" height="2" fill="#2244aa" />
  <rect x="640" y="4" width="2" height="48" fill="#2244aa" />
  <rect x="894" y="4" width="2" height="48" fill="#2244aa" />
  <text x="768" y="36" font-family="'Courier New', Courier, monospace" font-size="26" font-weight="bold" fill="#ffcc00" text-anchor="middle" letter-spacing="2" filter="url(#glow)">GAME OVER</text>

  
  <rect width="1536" height="1024" fill="url(#crtGlow)" />
  
  <rect width="1536" height="1024" fill="url(#scanlines)" />
  
  <rect x="0" y="0" width="80" height="1024" fill="#000008" opacity="0.4" />
  <rect x="1456" y="0" width="80" height="1024" fill="#000008" opacity="0.4" />
  <rect x="0" y="0" width="1536" height="60" fill="#000008" opacity="0.25" />
  <rect x="0" y="964" width="1536" height="60" fill="#000008" opacity="0.35" />
</svg>