<svg xmlns="http://www.w3.org/2000/svg" viewBox="0 0 1536 1024" role="img" width="1536" height="1024">
  <title>Rio+20 UN Conference on Sustainable Development - Retro Pixel Art Banner</title>
  <defs>
    <radialGradient id="crt" cx="50%" cy="50%" r="70%">
      <stop offset="0%" stop-color="#001a00" />
      <stop offset="100%" stop-color="#000800" />
    </radialGradient>
    <radialGradient id="glow" cx="50%" cy="50%" r="50%">
      <stop offset="0%" stop-color="#00ff44" stop-opacity="0.15" />
      <stop offset="100%" stop-color="#00ff44" stop-opacity="0" />
    </radialGradient>
    <filter id="scanlines" x="0" y="0" width="100%" height="100%">
      <feTurbulence type="fractalNoise" baseFrequency="0 0.5" numOctaves="1" result="noise" />
      <feColorMatrix type="saturate" values="0" in="noise" result="grey" />
      <feBlend in="SourceGraphic" in2="grey" mode="multiply" />
    </filter>
  </defs>

  
  <rect width="1536" height="1024" fill="url(#crt)" />
  <rect width="1536" height="1024" fill="url(#glow)" />

  
  <rect width="1536" height="1024" fill="none" stroke="#001500" stroke-width="2" opacity="0.3" />

  
  <g opacity="0.18">
    <rect x="0" y="0" width="1536" height="2" fill="#00ff44" />
    <rect x="0" y="4" width="1536" height="2" fill="#00ff44" />
    <rect x="0" y="8" width="1536" height="2" fill="#00ff44" />
    <rect x="0" y="12" width="1536" height="2" fill="#00ff44" />
    <rect x="0" y="16" width="1536" height="2" fill="#00ff44" />
    <rect x="0" y="20" width="1536" height="2" fill="#00ff44" />
    <rect x="0" y="24" width="1536" height="2" fill="#00ff44" />
    <rect x="0" y="28" width="1536" height="2" fill="#00ff44" />
    <rect x="0" y="32" width="1536" height="2" fill="#00ff44" />
    <rect x="0" y="36" width="1536" height="2" fill="#00ff44" />
    <rect x="0" y="40" width="1536" height="2" fill="#00ff44" />
    <rect x="0" y="44" width="1536" height="2" fill="#00ff44" />
    <rect x="0" y="48" width="1536" height="2" fill="#00ff44" />
    <rect x="0" y="52" width="1536" height="2" fill="#00ff44" />
    <rect x="0" y="56" width="1536" height="2" fill="#00ff44" />
    <rect x="0" y="60" width="1536" height="2" fill="#00ff44" />
    <rect x="0" y="64" width="1536" height="2" fill="#00ff44" />
    <rect x="0" y="68" width="1536" height="2" fill="#00ff44" />
    <rect x="0" y="72" width="1536" height="2" fill="#00ff44" />
    <rect x="0" y="76" width="1536" height="2" fill="#00ff44" />
    <rect x="0" y="80" width="1536" height="2" fill="#00ff44" />
    <rect x="0" y="84" width="1536" height="2" fill="#00ff44" />
    <rect x="0" y="88" width="1536" height="2" fill="#00ff44" />
    <rect x="0" y="92" width="1536" height="2" fill="#00ff44" />
    <rect x="0" y="96" width="1536" height="2" fill="#00ff44" />
    <rect x="0" y="100" width="1536" height="2" fill="#00ff44" />
    <rect x="0" y="104" width="1536" height="2" fill="#00ff44" />
    <rect x="0" y="108" width="1536" height="2" fill="#00ff44" />
    <rect x="0" y="112" width="1536" height="2" fill="#00ff44" />
    <rect x="0" y="116" width="1536" height="2" fill="#00ff44" />
    <rect x="0" y="120" width="1536" height="2" fill="#00ff44" />
    <rect x="0" y="124" width="1536" height="2" fill="#00ff44" />
    <rect x="0" y="128" width="1536" height="2" fill="#00ff44" />
    <rect x="0" y="132" width="1536" height="2" fill="#00ff44" />
    <rect x="0" y="136" width="1536" height="2" fill="#00ff44" />
    <rect x="0" y="140" width="1536" height="2" fill="#00ff44" />
    <rect x="0" y="144" width="1536" height="2" fill="#00ff44" />
    <rect x="0" y="148" width="1536" height="2" fill="#00ff44" />
    <rect x="0" y="152" width="1536" height="2" fill="#00ff44" />
    <rect x="0" y="156" width="1536" height="2" fill="#00ff44" />
    <rect x="0" y="160" width="1536" height="2" fill="#00ff44" />
    <rect x="0" y="164" width="1536" height="2" fill="#00ff44" />
    <rect x="0" y="168" width="1536" height="2" fill="#00ff44" />
    <rect x="0" y="172" width="1536" height="2" fill="#00ff44" />
    <rect x="0" y="176" width="1536" height="2" fill="#00ff44" />
    <rect x="0" y="180" width="1536" height="2" fill="#00ff44" />
    <rect x="0" y="184" width="1536" height="2" fill="#00ff44" />
    <rect x="0" y="188" width="1536" height="2" fill="#00ff44" />
    <rect x="0" y="192" width="1536" height="2" fill="#00ff44" />
    <rect x="0" y="196" width="1536" height="2" fill="#00ff44" />
    <rect x="0" y="200" width="1536" height="2" fill="#00ff44" />
    <rect x="0" y="204" width="1536" height="2" fill="#00ff44" />
    <rect x="0" y="208" width="1536" height="2" fill="#00ff44" />
    <rect x="0" y="212" width="1536" height="2" fill="#00ff44" />
    <rect x="0" y="216" width="1536" height="2" fill="#00ff44" />
    <rect x="0" y="220" width="1536" height="2" fill="#00ff44" />
    <rect x="0" y="224" width="1536" height="2" fill="#00ff44" />
    <rect x="0" y="228" width="1536" height="2" fill="#00ff44" />
    <rect x="0" y="232" width="1536" height="2" fill="#00ff44" />
    <rect x="0" y="236" width="1536" height="2" fill="#00ff44" />
    <rect x="0" y="240" width="1536" height="2" fill="#00ff44" />
    <rect x="0" y="244" width="1536" height="2" fill="#00ff44" />
    <rect x="0" y="248" width="1536" height="2" fill="#00ff44" />
    <rect x="0" y="252" width="1536" height="2" fill="#00ff44" />
    <rect x="0" y="256" width="1536" height="2" fill="#00ff44" />
    <rect x="0" y="260" width="1536" height="2" fill="#00ff44" />
    <rect x="0" y="264" width="1536" height="2" fill="#00ff44" />
    <rect x="0" y="268" width="1536" height="2" fill="#00ff44" />
    <rect x="0" y="272" width="1536" height="2" fill="#00ff44" />
    <rect x="0" y="276" width="1536" height="2" fill="#00ff44" />
    <rect x="0" y="280" width="1536" height="2" fill="#00ff44" />
    <rect x="0" y="284" width="1536" height="2" fill="#00ff44" />
    <rect x="0" y="288" width="1536" height="2" fill="#00ff44" />
    <rect x="0" y="292" width="1536" height="2" fill="#00ff44" />
    <rect x="0" y="296" width="1536" height="2" fill="#00ff44" />
    <rect x="0" y="300" width="1536" height="2" fill="#00ff44" />
    <rect x="0" y="304" width="1536" height="2" fill="#00ff44" />
    <rect x="0" y="308" width="1536" height="2" fill="#00ff44" />
    <rect x="0" y="312" width="1536" height="2" fill="#00ff44" />
    <rect x="0" y="316" width="1536" height="2" fill="#00ff44" />
    <rect x="0" y="320" width="1536" height="2" fill="#00ff44" />
    <rect x="0" y="324" width="1536" height="2" fill="#00ff44" />
    <rect x="0" y="328" width="1536" height="2" fill="#00ff44" />
    <rect x="0" y="332" width="1536" height="2" fill="#00ff44" />
    <rect x="0" y="336" width="1536" height="2" fill="#00ff44" />
    <rect x="0" y="340" width="1536" height="2" fill="#00ff44" />
    <rect x="0" y="344" width="1536" height="2" fill="#00ff44" />
    <rect x="0" y="348" width="1536" height="2" fill="#00ff44" />
    <rect x="0" y="352" width="1536" height="2" fill="#00ff44" />
    <rect x="0" y="356" width="1536" height="2" fill="#00ff44" />
    <rect x="0" y="360" width="1536" height="2" fill="#00ff44" />
    <rect x="0" y="364" width="1536" height="2" fill="#00ff44" />
    <rect x="0" y="368" width="1536" height="2" fill="#00ff44" />
    <rect x="0" y="372" width="1536" height="2" fill="#00ff44" />
    <rect x="0" y="376" width="1536" height="2" fill="#00ff44" />
    <rect x="0" y="380" width="1536" height="2" fill="#00ff44" />
    <rect x="0" y="384" width="1536" height="2" fill="#00ff44" />
    <rect x="0" y="388" width="1536" height="2" fill="#00ff44" />
    <rect x="0" y="392" width="1536" height="2" fill="#00ff44" />
    <rect x="0" y="396" width="1536" height="2" fill="#00ff44" />
    <rect x="0" y="400" width="1536" height="2" fill="#00ff44" />
    <rect x="0" y="404" width="1536" height="2" fill="#00ff44" />
    <rect x="0" y="408" width="1536" height="2" fill="#00ff44" />
    <rect x="0" y="412" width="1536" height="2" fill="#00ff44" />
    <rect x="0" y="416" width="1536" height="2" fill="#00ff44" />
    <rect x="0" y="420" width="1536" height="2" fill="#00ff44" />
    <rect x="0" y="424" width="1536" height="2" fill="#00ff44" />
    <rect x="0" y="428" width="1536" height="2" fill="#00ff44" />
    <rect x="0" y="432" width="1536" height="2" fill="#00ff44" />
    <rect x="0" y="436" width="1536" height="2" fill="#00ff44" />
    <rect x="0" y="440" width="1536" height="2" fill="#00ff44" />
    <rect x="0" y="444" width="1536" height="2" fill="#00ff44" />
    <rect x="0" y="448" width="1536" height="2" fill="#00ff44" />
    <rect x="0" y="452" width="1536" height="2" fill="#00ff44" />
    <rect x="0" y="456" width="1536" height="2" fill="#00ff44" />
    <rect x="0" y="460" width="1536" height="2" fill="#00ff44" />
    <rect x="0" y="464" width="1536" height="2" fill="#00ff44" />
    <rect x="0" y="468" width="1536" height="2" fill="#00ff44" />
    <rect x="0" y="472" width="1536" height="2" fill="#00ff44" />
    <rect x="0" y="476" width="1536" height="2" fill="#00ff44" />
    <rect x="0" y="480" width="1536" height="2" fill="#00ff44" />
    <rect x="0" y="484" width="1536" height="2" fill="#00ff44" />
    <rect x="0" y="488" width="1536" height="2" fill="#00ff44" />
    <rect x="0" y="492" width="1536" height="2" fill="#00ff44" />
    <rect x="0" y="496" width="1536" height="2" fill="#00ff44" />
    <rect x="0" y="500" width="1536" height="2" fill="#00ff44" />
    <rect x="0" y="504" width="1536" height="2" fill="#00ff44" />
    <rect x="0" y="508" width="1536" height="2" fill="#00ff44" />
    <rect x="0" y="512" width="1536" height="2" fill="#00ff44" />
    <rect x="0" y="516" width="1536" height="2" fill="#00ff44" />
    <rect x="0" y="520" width="1536" height="2" fill="#00ff44" />
    <rect x="0" y="524" width="1536" height="2" fill="#00ff44" />
    <rect x="0" y="528" width="1536" height="2" fill="#00ff44" />
    <rect x="0" y="532" width="1536" height="2" fill="#00ff44" />
    <rect x="0" y="536" width="1536" height="2" fill="#00ff44" />
    <rect x="0" y="540" width="1536" height="2" fill="#00ff44" />
    <rect x="0" y="544" width="1536" height="2" fill="#00ff44" />
    <rect x="0" y="548" width="1536" height="2" fill="#00ff44" />
    <rect x="0" y="552" width="1536" height="2" fill="#00ff44" />
    <rect x="0" y="556" width="1536" height="2" fill="#00ff44" />
    <rect x="0" y="560" width="1536" height="2" fill="#00ff44" />
    <rect x="0" y="564" width="1536" height="2" fill="#00ff44" />
    <rect x="0" y="568" width="1536" height="2" fill="#00ff44" />
    <rect x="0" y="572" width="1536" height="2" fill="#00ff44" />
    <rect x="0" y="576" width="1536" height="2" fill="#00ff44" />
    <rect x="0" y="580" width="1536" height="2" fill="#00ff44" />
    <rect x="0" y="584" width="1536" height="2" fill="#00ff44" />
    <rect x="0" y="588" width="1536" height="2" fill="#00ff44" />
    <rect x="0" y="592" width="1536" height="2" fill="#00ff44" />
    <rect x="0" y="596" width="1536" height="2" fill="#00ff44" />
    <rect x="0" y="600" width="1536" height="2" fill="#00ff44" />
    <rect x="0" y="604" width="1536" height="2" fill="#00ff44" />
    <rect x="0" y="608" width="1536" height="2" fill="#00ff44" />
    <rect x="0" y="612" width="1536" height="2" fill="#00ff44" />
    <rect x="0" y="616" width="1536" height="2" fill="#00ff44" />
    <rect x="0" y="620" width="1536" height="2" fill="#00ff44" />
    <rect x="0" y="624" width="1536" height="2" fill="#00ff44" />
    <rect x="0" y="628" width="1536" height="2" fill="#00ff44" />
    <rect x="0" y="632" width="1536" height="2" fill="#00ff44" />
    <rect x="0" y="636" width="1536" height="2" fill="#00ff44" />
    <rect x="0" y="640" width="1536" height="2" fill="#00ff44" />
    <rect x="0" y="644" width="1536" height="2" fill="#00ff44" />
    <rect x="0" y="648" width="1536" height="2" fill="#00ff44" />
    <rect x="0" y="652" width="1536" height="2" fill="#00ff44" />
    <rect x="0" y="656" width="1536" height="2" fill="#00ff44" />
    <rect x="0" y="660" width="1536" height="2" fill="#00ff44" />
    <rect x="0" y="664" width="1536" height="2" fill="#00ff44" />
    <rect x="0" y="668" width="1536" height="2" fill="#00ff44" />
    <rect x="0" y="672" width="1536" height="2" fill="#00ff44" />
    <rect x="0" y="676" width="1536" height="2" fill="#00ff44" />
    <rect x="0" y="680" width="1536" height="2" fill="#00ff44" />
    <rect x="0" y="684" width="1536" height="2" fill="#00ff44" />
    <rect x="0" y="688" width="1536" height="2" fill="#00ff44" />
    <rect x="0" y="692" width="1536" height="2" fill="#00ff44" />
    <rect x="0" y="696" width="1536" height="2" fill="#00ff44" />
    <rect x="0" y="700" width="1536" height="2" fill="#00ff44" />
    <rect x="0" y="704" width="1536" height="2" fill="#00ff44" />
    <rect x="0" y="708" width="1536" height="2" fill="#00ff44" />
    <rect x="0" y="712" width="1536" height="2" fill="#00ff44" />
    <rect x="0" y="716" width="1536" height="2" fill="#00ff44" />
    <rect x="0" y="720" width="1536" height="2" fill="#00ff44" />
    <rect x="0" y="724" width="1536" height="2" fill="#00ff44" />
    <rect x="0" y="728" width="1536" height="2" fill="#00ff44" />
    <rect x="0" y="732" width="1536" height="2" fill="#00ff44" />
    <rect x="0" y="736" width="1536" height="2" fill="#00ff44" />
    <rect x="0" y="740" width="1536" height="2" fill="#00ff44" />
    <rect x="0" y="744" width="1536" height="2" fill="#00ff44" />
    <rect x="0" y="748" width="1536" height="2" fill="#00ff44" />
    <rect x="0" y="752" width="1536" height="2" fill="#00ff44" />
    <rect x="0" y="756" width="1536" height="2" fill="#00ff44" />
    <rect x="0" y="760" width="1536" height="2" fill="#00ff44" />
    <rect x="0" y="764" width="1536" height="2" fill="#00ff44" />
    <rect x="0" y="768" width="1536" height="2" fill="#00ff44" />
    <rect x="0" y="772" width="1536" height="2" fill="#00ff44" />
    <rect x="0" y="776" width="1536" height="2" fill="#00ff44" />
    <rect x="0" y="780" width="1536" height="2" fill="#00ff44" />
    <rect x="0" y="784" width="1536" height="2" fill="#00ff44" />
    <rect x="0" y="788" width="1536" height="2" fill="#00ff44" />
    <rect x="0" y="792" width="1536" height="2" fill="#00ff44" />
    <rect x="0" y="796" width="1536" height="2" fill="#00ff44" />
    <rect x="0" y="800" width="1536" height="2" fill="#00ff44" />
    <rect x="0" y="804" width="1536" height="2" fill="#00ff44" />
    <rect x="0" y="808" width="1536" height="2" fill="#00ff44" />
    <rect x="0" y="812" width="1536" height="2" fill="#00ff44" />
    <rect x="0" y="816" width="1536" height="2" fill="#00ff44" />
    <rect x="0" y="820" width="1536" height="2" fill="#00ff44" />
    <rect x="0" y="824" width="1536" height="2" fill="#00ff44" />
    <rect x="0" y="828" width="1536" height="2" fill="#00ff44" />
    <rect x="0" y="832" width="1536" height="2" fill="#00ff44" />
    <rect x="0" y="836" width="1536" height="2" fill="#00ff44" />
    <rect x="0" y="840" width="1536" height="2" fill="#00ff44" />
    <rect x="0" y="844" width="1536" height="2" fill="#00ff44" />
    <rect x="0" y="848" width="1536" height="2" fill="#00ff44" />
    <rect x="0" y="852" width="1536" height="2" fill="#00ff44" />
    <rect x="0" y="856" width="1536" height="2" fill="#00ff44" />
    <rect x="0" y="860" width="1536" height="2" fill="#00ff44" />
    <rect x="0" y="864" width="1536" height="2" fill="#00ff44" />
    <rect x="0" y="868" width="1536" height="2" fill="#00ff44" />
    <rect x="0" y="872" width="1536" height="2" fill="#00ff44" />
    <rect x="0" y="876" width="1536" height="2" fill="#00ff44" />
    <rect x="0" y="880" width="1536" height="2" fill="#00ff44" />
    <rect x="0" y="884" width="1536" height="2" fill="#00ff44" />
    <rect x="0" y="888" width="1536" height="2" fill="#00ff44" />
    <rect x="0" y="892" width="1536" height="2" fill="#00ff44" />
    <rect x="0" y="896" width="1536" height="2" fill="#00ff44" />
    <rect x="0" y="900" width="1536" height="2" fill="#00ff44" />
    <rect x="0" y="904" width="1536" height="2" fill="#00ff44" />
    <rect x="0" y="908" width="1536" height="2" fill="#00ff44" />
    <rect x="0" y="912" width="1536" height="2" fill="#00ff44" />
    <rect x="0" y="916" width="1536" height="2" fill="#00ff44" />
    <rect x="0" y="920" width="1536" height="2" fill="#00ff44" />
    <rect x="0" y="924" width="1536" height="2" fill="#00ff44" />
    <rect x="0" y="928" width="1536" height="2" fill="#00ff44" />
    <rect x="0" y="932" width="1536" height="2" fill="#00ff44" />
    <rect x="0" y="936" width="1536" height="2" fill="#00ff44" />
    <rect x="0" y="940" width="1536" height="2" fill="#00ff44" />
    <rect x="0" y="944" width="1536" height="2" fill="#00ff44" />
    <rect x="0" y="948" width="1536" height="2" fill="#00ff44" />
    <rect x="0" y="952" width="1536" height="2" fill="#00ff44" />
    <rect x="0" y="956" width="1536" height="2" fill="#00ff44" />
    <rect x="0" y="960" width="1536" height="2" fill="#00ff44" />
    <rect x="0" y="964" width="1536" height="2" fill="#00ff44" />
    <rect x="0" y="968" width="1536" height="2" fill="#00ff44" />
    <rect x="0" y="972" width="1536" height="2" fill="#00ff44" />
    <rect x="0" y="976" width="1536" height="2" fill="#00ff44" />
    <rect x="0" y="980" width="1536" height="2" fill="#00ff44" />
    <rect x="0" y="984" width="1536" height="2" fill="#00ff44" />
    <rect x="0" y="988" width="1536" height="2" fill="#00ff44" />
    <rect x="0" y="992" width="1536" height="2" fill="#00ff44" />
    <rect x="0" y="996" width="1536" height="2" fill="#00ff44" />
    <rect x="0" y="1000" width="1536" height="2" fill="#00ff44" />
    <rect x="0" y="1004" width="1536" height="2" fill="#00ff44" />
    <rect x="0" y="1008" width="1536" height="2" fill="#00ff44" />
    <rect x="0" y="1012" width="1536" height="2" fill="#00ff44" />
    <rect x="0" y="1016" width="1536" height="2" fill="#00ff44" />
    <rect x="0" y="1020" width="1536" height="2" fill="#00ff44" />
  </g>

  
  <rect x="0" y="680" width="1536" height="344" fill="#003366" />
  
  <rect x="0" y="680" width="1536" height="16" fill="#004488" />
  <rect x="0" y="696" width="96" height="16" fill="#003366" />
  <rect x="96" y="696" width="96" height="16" fill="#004488" />
  <rect x="192" y="696" width="96" height="16" fill="#003366" />
  <rect x="288" y="696" width="96" height="16" fill="#004488" />
  <rect x="384" y="696" width="96" height="16" fill="#003366" />
  <rect x="480" y="696" width="96" height="16" fill="#004488" />
  <rect x="576" y="696" width="96" height="16" fill="#003366" />
  <rect x="672" y="696" width="96" height="16" fill="#004488" />
  <rect x="768" y="696" width="96" height="16" fill="#003366" />
  <rect x="864" y="696" width="96" height="16" fill="#004488" />
  <rect x="960" y="696" width="96" height="16" fill="#003366" />
  <rect x="1056" y="696" width="96" height="16" fill="#004488" />
  <rect x="1152" y="696" width="96" height="16" fill="#003366" />
  <rect x="1248" y="696" width="96" height="16" fill="#004488" />
  <rect x="1344" y="696" width="96" height="16" fill="#003366" />
  <rect x="1440" y="696" width="96" height="16" fill="#004488" />

  <rect x="0" y="712" width="1536" height="16" fill="#003366" />
  <rect x="48" y="728" width="96" height="16" fill="#004488" />
  <rect x="144" y="728" width="96" height="16" fill="#003366" />
  <rect x="240" y="728" width="96" height="16" fill="#004488" />
  <rect x="336" y="728" width="96" height="16" fill="#003366" />
  <rect x="432" y="728" width="96" height="16" fill="#004488" />
  <rect x="528" y="728" width="96" height="16" fill="#003366" />
  <rect x="624" y="728" width="96" height="16" fill="#004488" />
  <rect x="720" y="728" width="96" height="16" fill="#003366" />
  <rect x="816" y="728" width="96" height="16" fill="#004488" />
  <rect x="912" y="728" width="96" height="16" fill="#003366" />
  <rect x="1008" y="728" width="96" height="16" fill="#004488" />
  <rect x="1104" y="728" width="96" height="16" fill="#003366" />
  <rect x="1200" y="728" width="96" height="16" fill="#004488" />
  <rect x="1296" y="728" width="96" height="16" fill="#003366" />
  <rect x="1392" y="728" width="96" height="16" fill="#004488" />
  <rect x="1488" y="728" width="48" height="16" fill="#003366" />

  
  <rect x="0" y="0" width="1536" height="96" fill="#000033" />
  <rect x="0" y="96" width="1536" height="96" fill="#001155" />
  <rect x="0" y="192" width="1536" height="96" fill="#002266" />
  <rect x="0" y="288" width="1536" height="96" fill="#003377" />
  <rect x="0" y="384" width="1536" height="192" fill="#004488" />
  <rect x="0" y="576" width="1536" height="104" fill="#006644" />

  
  <rect x="100" y="40" width="8" height="8" fill="#ffffff" />
  <rect x="240" y="20" width="8" height="8" fill="#ffffff" />
  <rect x="380" y="60" width="8" height="8" fill="#ffff00" />
  <rect x="500" y="30" width="8" height="8" fill="#ffffff" />
  <rect x="650" y="50" width="8" height="8" fill="#ffffff" />
  <rect x="800" y="15" width="8" height="8" fill="#ffff00" />
  <rect x="950" y="45" width="8" height="8" fill="#ffffff" />
  <rect x="1100" y="25" width="8" height="8" fill="#ffffff" />
  <rect x="1250" y="55" width="8" height="8" fill="#ffff00" />
  <rect x="1400" y="35" width="8" height="8" fill="#ffffff" />
  <rect x="160" y="75" width="4" height="4" fill="#aaaaff" />
  <rect x="460" y="80" width="4" height="4" fill="#aaaaff" />
  <rect x="730" y="70" width="4" height="4" fill="#aaaaff" />
  <rect x="1020" y="82" width="4" height="4" fill="#aaaaff" />
  <rect x="1330" y="68" width="4" height="4" fill="#aaaaff" />

  
  
  
  <g transform="translate(760, 390)">
    
    <rect x="-128" y="-192" width="256" height="32" fill="#0055aa" />
    <rect x="-192" y="-160" width="384" height="32" fill="#0055aa" />
    <rect x="-224" y="-128" width="448" height="32" fill="#0055aa" />
    <rect x="-240" y="-96" width="480" height="32" fill="#0055aa" />
    <rect x="-240" y="-64" width="480" height="32" fill="#0055aa" />
    <rect x="-240" y="-32" width="480" height="32" fill="#0055aa" />
    <rect x="-240" y="0" width="480" height="32" fill="#0055aa" />
    <rect x="-240" y="32" width="480" height="32" fill="#0055aa" />
    <rect x="-224" y="64" width="448" height="32" fill="#0055aa" />
    <rect x="-192" y="96" width="384" height="32" fill="#0055aa" />
    <rect x="-128" y="128" width="256" height="32" fill="#0055aa" />
    <rect x="-64" y="160" width="128" height="16" fill="#0055aa" />

    
    <rect x="-176" y="-112" width="64" height="32" fill="#22bb44" />
    <rect x="-160" y="-80" width="80" height="32" fill="#22bb44" />
    <rect x="-144" y="-48" width="96" height="48" fill="#22bb44" />
    <rect x="-128" y="0" width="48" height="48" fill="#22bb44" />
    <rect x="-112" y="48" width="32" height="32" fill="#22bb44" />

    
    <rect x="0" y="-128" width="80" height="48" fill="#22bb44" />
    <rect x="16" y="-80" width="64" height="32" fill="#22bb44" />
    <rect x="32" y="-48" width="80" height="64" fill="#22bb44" />
    <rect x="48" y="16" width="48" height="48" fill="#22bb44" />
    <rect x="64" y="64" width="32" height="32" fill="#22bb44" />

    
    <rect x="80" y="-144" width="112" height="48" fill="#22bb44" />
    <rect x="96" y="-96" width="128" height="64" fill="#22bb44" />
    <rect x="112" y="-32" width="80" height="32" fill="#22bb44" />

    
    <rect x="-128" y="-192" width="256" height="16" fill="#0044aa" opacity="0.5" />
    <rect x="-240" y="-32" width="32" height="224" fill="#003388" opacity="0.5" />

    
    <rect x="-160" y="-160" width="80" height="48" fill="#55aaff" opacity="0.4" />
    <rect x="-176" y="-128" width="32" height="32" fill="#88ccff" opacity="0.4" />
  </g>

  
  
  <rect x="1100" y="550" width="48" height="16" fill="#004422" />
  <rect x="1084" y="566" width="80" height="16" fill="#005533" />
  <rect x="1068" y="582" width="112" height="16" fill="#006644" />
  <rect x="1052" y="598" width="144" height="16" fill="#007755" />
  <rect x="1036" y="614" width="176" height="16" fill="#008866" />
  <rect x="1020" y="630" width="208" height="16" fill="#006644" />
  <rect x="1004" y="646" width="240" height="16" fill="#005533" />
  <rect x="988" y="662" width="272" height="18" fill="#004422" />

  
  <rect x="1232" y="570" width="32" height="16" fill="#004422" />
  <rect x="1216" y="586" width="64" height="16" fill="#005533" />
  <rect x="1200" y="602" width="96" height="16" fill="#006644" />
  <rect x="1184" y="618" width="128" height="16" fill="#007755" />
  <rect x="1168" y="634" width="160" height="16" fill="#006644" />
  <rect x="1152" y="650" width="192" height="16" fill="#005533" />
  <rect x="1136" y="666" width="224" height="14" fill="#004422" />

  
  <rect x="80" y="560" width="320" height="120" fill="#226688" />
  <rect x="96" y="544" width="288" height="16" fill="#2277aa" />
  
  <rect x="112" y="576" width="32" height="24" fill="#aaddff" />
  <rect x="160" y="576" width="32" height="24" fill="#aaddff" />
  <rect x="208" y="576" width="32" height="24" fill="#aaddff" />
  <rect x="256" y="576" width="32" height="24" fill="#aaddff" />
  <rect x="304" y="576" width="32" height="24" fill="#aaddff" />
  <rect x="352" y="576" width="32" height="24" fill="#aaddff" />
  <rect x="112" y="616" width="32" height="24" fill="#aaddff" />
  <rect x="160" y="616" width="32" height="24" fill="#aaddff" />
  <rect x="208" y="616" width="32" height="24" fill="#aaddff" />
  <rect x="256" y="616" width="32" height="24" fill="#aaddff" />
  <rect x="304" y="616" width="32" height="24" fill="#aaddff" />
  <rect x="352" y="616" width="32" height="24" fill="#aaddff" />
  
  <rect x="80" y="528" width="320" height="16" fill="#1a5577" />
  
  <rect x="208" y="648" width="64" height="32" fill="#113344" />
  
  <rect x="192" y="680" width="96" height="8" fill="#1a5577" />
  <rect x="176" y="688" width="128" height="8" fill="#1a5577" />

  
  <rect x="64" y="480" width="8" height="200" fill="#888888" />
  <rect x="72" y="480" width="64" height="48" fill="#4488cc" />
  
  <rect x="88" y="492" width="16" height="16" fill="#ffffff" opacity="0.8" />
  <rect x="92" y="496" width="8" height="8" fill="#4488cc" />

  
  
  <rect x="80" y="40" width="32" height="32" fill="#e5243b" />
  <rect x="120" y="40" width="32" height="32" fill="#dda63a" />
  <rect x="160" y="40" width="32" height="32" fill="#4c9f38" />
  <rect x="200" y="40" width="32" height="32" fill="#c5192d" />
  <rect x="240" y="40" width="32" height="32" fill="#ff3a21" />
  <rect x="280" y="40" width="32" height="32" fill="#26bde2" />
  <rect x="320" y="40" width="32" height="32" fill="#fcc30b" />
  <rect x="360" y="40" width="32" height="32" fill="#a21942" />
  <rect x="400" y="40" width="32" height="32" fill="#fd6925" />
  <rect x="440" y="40" width="32" height="32" fill="#dd1367" />
  <rect x="480" y="40" width="32" height="32" fill="#fd9d24" />
  <rect x="520" y="40" width="32" height="32" fill="#bf8b2e" />
  <rect x="560" y="40" width="32" height="32" fill="#3f7e44" />
  <rect x="600" y="40" width="32" height="32" fill="#0a97d9" />
  <rect x="640" y="40" width="32" height="32" fill="#56c02b" />
  <rect x="680" y="40" width="32" height="32" fill="#00689d" />
  <rect x="720" y="40" width="32" height="32" fill="#19486a" />

  
  <text x="760" y="64" font-family="monospace" font-size="18" fill="#ffff00" font-weight="bold" letter-spacing="2">SDG 2030</text>

  
  <rect x="480" y="750" width="576" height="80" fill="#005500" />
  <rect x="480" y="750" width="576" height="8" fill="#00aa00" />
  <rect x="480" y="822" width="576" height="8" fill="#003300" />
  
  <rect x="464" y="758" width="16" height="64" fill="#003300" />
  <rect x="1056" y="758" width="16" height="64" fill="#003300" />
  <text x="768" y="800" font-family="monospace" font-size="22" fill="#ffff00" font-weight="bold" text-anchor="middle" letter-spacing="1">THE FUTURE WE WANT</text>

  
  
  <rect x="880" y="600" width="16" height="80" fill="#442200" />
  <rect x="864" y="544" width="48" height="32" fill="#00aa22" />
  <rect x="848" y="512" width="80" height="32" fill="#00cc44" />
  <rect x="864" y="480" width="48" height="32" fill="#00aa22" />
  
  <rect x="940" y="616" width="16" height="64" fill="#442200" />
  <rect x="924" y="560" width="48" height="32" fill="#00aa22" />
  <rect x="908" y="528" width="80" height="32" fill="#00cc44" />
  <rect x="924" y="496" width="48" height="32" fill="#00aa22" />
  
  <rect x="836" y="632" width="12" height="48" fill="#442200" />
  <rect x="824" y="584" width="36" height="24" fill="#009922" />
  <rect x="812" y="560" width="60" height="24" fill="#00bb33" />
  <rect x="824" y="536" width="36" height="24" fill="#009922" />

  
  <rect x="1380" y="120" width="80" height="80" fill="#ffdd00" />
  <rect x="1364" y="136" width="112" height="48" fill="#ffdd00" />
  <rect x="1396" y="104" width="48" height="112" fill="#ffdd00" />
  
  <rect x="1348" y="152" width="16" height="16" fill="#ffdd00" opacity="0.5" />
  <rect x="1476" y="152" width="16" height="16" fill="#ffdd00" opacity="0.5" />
  <rect x="1396" y="88" width="16" height="16" fill="#ffdd00" opacity="0.5" />
  <rect x="1396" y="216" width="16" height="16" fill="#ffdd00" opacity="0.5" />
  <rect x="1364" y="120" width="16" height="16" fill="#ffdd00" opacity="0.4" />
  <rect x="1460" y="120" width="16" height="16" fill="#ffdd00" opacity="0.4" />
  <rect x="1364" y="200" width="16" height="16" fill="#ffdd00" opacity="0.4" />
  <rect x="1460" y="200" width="16" height="16" fill="#ffdd00" opacity="0.4" />

  
  <rect x="1200" y="800" width="288" height="96" fill="#220066" />
  <rect x="1200" y="800" width="288" height="8" fill="#aa00ff" />
  <rect x="1200" y="888" width="288" height="8" fill="#440088" />
  <text x="1344" y="840" font-family="monospace" font-size="16" fill="#ff88ff" font-weight="bold" text-anchor="middle">49,000</text>
  <text x="1344" y="868" font-family="monospace" font-size="14" fill="#cc66ff" text-anchor="middle">PARTICIPANTS</text>

  
  <rect x="48" y="800" width="256" height="96" fill="#003322" />
  <rect x="48" y="800" width="256" height="8" fill="#00ff88" />
  <rect x="48" y="888" width="256" height="8" fill="#006644" />
  <text x="176" y="840" font-family="monospace" font-size="20" fill="#00ff88" font-weight="bold" text-anchor="middle">$513B</text>
  <text x="176" y="868" font-family="monospace" font-size="13" fill="#00cc66" text-anchor="middle">PLEDGED</text>

  
  <rect x="48" y="912" width="256" height="80" fill="#330022" />
  <rect x="48" y="912" width="256" height="8" fill="#ff0088" />
  <rect x="48" y="984" width="256" height="8" fill="#660044" />
  <text x="176" y="950" font-family="monospace" font-size="18" fill="#ff44aa" font-weight="bold" text-anchor="middle">192 NATIONS</text>
  <text x="176" y="974" font-family="monospace" font-size="13" fill="#cc2266" text-anchor="middle">UN MEMBER STATES</text>

  
  <rect x="0" y="664" width="1536" height="16" fill="#115500" />
  <rect x="0" y="648" width="1536" height="16" fill="#226611" />

  
  <rect x="0" y="880" width="1536" height="144" fill="#000011" opacity="0.85" />
  <rect x="0" y="880" width="1536" height="6" fill="#00ff88" />

  
  <text x="768" y="938" font-family="monospace" font-size="64" fill="#00ff88" font-weight="bold" text-anchor="middle" letter-spacing="4">RIO+20</text>
  <text x="768" y="990" font-family="monospace" font-size="22" fill="#44ddaa" text-anchor="middle" letter-spacing="3">UN CONFERENCE ON SUSTAINABLE DEVELOPMENT</text>

  
  <text x="768" y="1016" font-family="monospace" font-size="16" fill="#228866" text-anchor="middle" letter-spacing="2">JUNE 20-22, 2012  ·  RIO DE JANEIRO, BRAZIL</text>

  
  <rect x="0" y="0" width="200" height="1024" fill="#000000" opacity="0.25" />
  <rect x="1336" y="0" width="200" height="1024" fill="#000000" opacity="0.25" />
  <rect x="0" y="0" width="1536" height="100" fill="#000000" opacity="0.2" />
  <rect x="0" y="924" width="1536" height="100" fill="#000000" opacity="0.15" />

  
  <rect x="0" y="0" width="1536" height="8" fill="#00ff44" opacity="0.6" />
  <rect x="0" y="1016" width="1536" height="8" fill="#00ff44" opacity="0.6" />
  <rect x="0" y="0" width="8" height="1024" fill="#00ff44" opacity="0.6" />
  <rect x="1528" y="0" width="8" height="1024" fill="#00ff44" opacity="0.6" />

  
  <rect x="16" y="16" width="1504" height="4" fill="#004422" opacity="0.8" />
  <rect x="16" y="1004" width="1504" height="4" fill="#004422" opacity="0.8" />
  <rect x="16" y="16" width="4" height="992" fill="#004422" opacity="0.8" />
  <rect x="1516" y="16" width="4" height="992" fill="#004422" opacity="0.8" />
</svg>